<svg xmlns="http://www.w3.org/2000/svg" width="1440" height="800" fill="none"><path fill="#FAFAFA" d="M720.039 800c215.965 0 391.041-98.764 391.041-220.596 0-121.831-175.076-220.595-391.041-220.595S329 457.573 329 579.404C329 701.236 504.074 800 720.039 800ZM1097.99 347.988l-4.18 2.486-141.935-81.941 4.177-2.486 141.938 81.941Z"/><path fill="#fff" d="m956.055 266.041 137.755 79.523V105.439l-137.755-79.49v240.092Z"/><path fill="#F0F0F0" d="m943.996 273.096 157.694 91.038v-263.24L943.996 9.855v263.241Zm7.88-249.578 141.934 81.941v245.012L951.876 268.53V23.518Z"/><path fill="#E0E0E0" d="m951.875 268.529 4.177-2.486V25.952l-4.177-2.452v245.029Z"/><path fill="#FAFAFA" d="M1093.81 288.633v4.903l-141.935-81.941 4.177-2.486 137.758 79.524ZM1093.81 148.407v4.904L951.875 71.37l4.177-2.503 137.758 79.54ZM943.996 9.855l4.244-2.418 157.68 91.039-4.23 2.418L943.996 9.856Z"/><path fill="#E0E0E0" d="m1105.92 98.473-4.23 2.418v263.223l4.23-2.435V98.473ZM1033.11 70.39l-4.25-2.453v245.046l4.25-2.417V70.389Z"/><path fill="#F0F0F0" d="m1021 63.422 7.86 4.515v245.046l-7.86-4.549V63.422Z"/><path fill="#F0F0F0" d="M943.996 66.824v9.08l157.694 91.039v-9.08L943.996 66.824ZM943.996 207.035v9.08l157.694 91.039v-9.08l-157.694-91.039Z"/><path fill="#FAFAFA" d="m1028.86 115.807 4.25-2.452 60.7 35.053v4.904l-64.95-37.505ZM1028.86 255.999l4.25-2.452 60.7 35.035v4.904l-64.95-37.487Z"/><path fill="url(#a)" d="M392.66 646.794a.931.931 0 0 1-.389-.659c-3.381-36.422-34.342-62.783-47.582-74.045-2.13-1.809-3.821-3.246-4.903-4.312-4.853-4.734-6.967-10.957-5.631-16.638a15.364 15.364 0 0 1 10.771-10.873c13.815-4.514 35.509 12.631 49.358 38.993 19.428 36.963 10.314 64.254 10.145 64.491a.899.899 0 0 1-.626.575l-10.466 2.688a.691.691 0 0 1-.372 0 .726.726 0 0 1-.305-.22Zm0-66.773c-13.527-25.618-34.19-42.273-47.21-38.13a13.523 13.523 0 0 0-9.57 9.655 16.068 16.068 0 0 0 5.072 14.947c1.049 1.015 2.723 2.435 4.82 4.228 13.29 11.295 44.2 37.588 48.106 74.197l8.962-2.3c1.166-3.619 7.524-28.931-10.146-62.564l-.034-.033Z"/><path fill="url(#b)" d="M398.985 645.457h.118a.917.917 0 0 0 .854-.548.907.907 0 0 0 .076-.348c.778-42.543-28.746-83.548-48.495-91.986a.918.918 0 0 0-.71 1.691c19.597 8.353 48.123 49.95 47.345 90.295a.897.897 0 0 0 .812.896Z"/><path fill="url(#c)" d="M403.516 644.292c.128.025.26.025.389 0l7.101-2.148a1 1 0 0 0 .609-.591c.118-.406 12.648-41.073 3.382-95.824-4.701-27.9-20.967-55.107-38.671-64.711-8.455-4.599-16.909-5.174-24.856-1.691-4.532 1.962-7.356 4.87-8.455 8.607-2.942 10.365 7.812 25.786 19.209 42.12 7.964 11.431 16.199 23.233 19.969 33.666a.9.9 0 0 0 1.691-.609c-3.838-10.652-12.141-22.573-20.172-34.088-11.143-15.979-21.661-31.045-18.972-40.582.93-3.246 3.382-5.681 7.389-7.457 7.457-3.246 15.218-2.688 23.284 1.691 17.264 9.351 33.142 36.016 37.758 63.409 8.623 51.234-1.894 89.922-3.23 94.522l-6.645 1.995a.912.912 0 0 0-.592 1.133.895.895 0 0 0 .812.558Z"/><path fill="url(#d)" d="M405.272 618.403a.913.913 0 0 0 .964-.828c5.36-65.827-31.367-118.533-42.273-127.579a.912.912 0 0 0-1.49.777.903.903 0 0 0 .323.609c10.704 8.911 46.889 60.873 41.597 126.04a.885.885 0 0 0 .517.906c.114.05.237.076.362.075Z"/><path fill="#F0F0F0" d="m342.277 121.334 2.993 1.725 74.688-43.135-2.993-1.725-74.688 43.135Z"/><path fill="#FAFAFA" d="m416.968 78.203-71.695 41.394V57.456l71.695-41.394v62.141Z"/><path fill="#EBEBEB" d="m422.95 9.164-80.673 46.568v72.489l80.673-46.568V9.164Zm-2.992 70.765-74.688 43.118v-65.59l74.688-43.068v65.54Z"/><path fill="#E0E0E0" d="m419.958 79.926-2.993-1.725v-62.14l2.993-1.725v65.59Z"/><path fill="#F5F5F5" d="m422.951 9.162-2.993-1.725-80.673 46.568 2.993 1.725 80.673-46.568Z"/><path fill="#E0E0E0" d="m339.285 54.004 2.993 1.725v72.506l-2.993-1.725V54.004ZM402.913 67.752c2.773-1.69 5.072-.304 5.072 2.909a11.153 11.153 0 0 1-5.072 8.742c-2.79 1.69-5.073.304-5.073-2.909a11.153 11.153 0 0 1 5.073-8.742ZM362.161 54.634l37.961-21.982c1.065-.609 1.91-.118 1.91 1.1v.117a4.21 4.21 0 0 1-1.91 3.382l-37.961 21.982c-1.066.626-1.911.118-1.911-1.1v-.117a4.178 4.178 0 0 1 1.911-3.382Z"/><path fill="#F0F0F0" d="m356.143 71.882 49.983-28.745c1.048-.609 1.911-.338 1.911.625a3.85 3.85 0 0 1-1.911 2.757l-50.017 28.863c-1.065.609-1.911.322-1.894-.642a3.93 3.93 0 0 1 1.928-2.858ZM356.143 78.793l49.983-28.898c1.048-.608 1.911-.338 1.911.61a3.847 3.847 0 0 1-1.911 2.84l-50.017 28.914c-1.065.626-1.911.338-1.894-.625a3.924 3.924 0 0 1 1.928-2.841ZM356.143 85.695l49.983-28.863c1.048-.609 1.911-.322 1.911.625a3.852 3.852 0 0 1-1.911 2.824l-50.017 28.88c-1.065.61-1.911.322-1.894-.625a3.924 3.924 0 0 1 1.928-2.84Z"/><path fill="#E0E0E0" d="M393.936 82.516a2.66 2.66 0 0 1-1.252.322c-1.065 0-.964-1.083-.93-1.827 0-.355-.456-.862-.71-.422-.642 1.166-1.471 2.249-2.164 3.382-.423.693-1.235 2.265-2.266 2.045-.423-.1-.558-.558-.558-1.132a5.63 5.63 0 0 0 .659-3.112c0-.32-.591-.727-.761-.287-.352.922-.569 1.89-.642 2.874a19.13 19.13 0 0 1-1.606 2.401c-.356.457-.66.981-1.049 1.404 0 .101-.27.372-.406.406-.135.034-.321-.152-.372-.39-.01-.35.048-.7.169-1.03v-.085c0-.338-.439-.846-.625-.423a14.998 14.998 0 0 1-2.942 4.904l-.186.152v-.592c-.01-.46-.09-.916-.237-1.353 0-.22-.457-.558-.66-.27a23.67 23.67 0 0 1-3.381 4.6 6.985 6.985 0 0 1-.694.49c-.236-.136.119-1.353.169-1.522.136-.558.322-1.082.491-1.691.181-.43.317-.878.406-1.336 0-.406-.643-1.031-.778-.49 0 .236-.254.777-.457 1.454a34.346 34.346 0 0 1-2.807 4.751 10.801 10.801 0 0 1-3.906 3.754c-.439.237-1.268.592-1.691.237-.422-.355-.439-.964-.456-1.404a12.014 12.014 0 0 1 .473-3.381 20.765 20.765 0 0 0 4.329-3.061 14.835 14.835 0 0 0 3.28-3.619c.44-.811.711-2.13-.372-2.587a2.991 2.991 0 0 0-2.333.558 10.141 10.141 0 0 0-2.384 1.86 13.746 13.746 0 0 0-2.976 5.445c-.102.304-.22.727-.338 1.184a9.302 9.302 0 0 1-5.513.93c-.101 0-.135.22 0 .236a9.012 9.012 0 0 0 5.377-.507c-.473 2.08-.744 4.836 1.201 5.377 1.944.541 4.295-1.894 5.343-3.382a22.77 22.77 0 0 0 2.08-3.381c.052-.092.115-.177.186-.254 0 .964.186 1.69 1.133 1.522.947-.17 1.843-1.539 2.367-2.266.524-.727.964-1.437 1.421-2.147.084.862.253 1.86 1.082 1.69.828-.169 1.522-1.69 1.91-2.198.389-.507.66-1.031.947-1.572.046.105.109.202.186.287.694.744 1.522 0 1.962-.642.439-.643 1.353-1.691 1.944-2.655.148.404.444.737.829.93 1.065.507 2.08-.372 2.688-1.167.758-1.02 1.43-2.1 2.013-3.23a1.49 1.49 0 0 0 .744 1.015 2.467 2.467 0 0 0 2.502-.152c.237-.102-.084-.829-.439-.643Zm-23.386 4.177c.491-.254 1.522-.677 1.59.152a2.874 2.874 0 0 1-.677 1.471 19.355 19.355 0 0 1-2.908 3.094 24.474 24.474 0 0 1-3.602 2.757 11.653 11.653 0 0 1 5.597-7.474Z"/><path fill="#F0F0F0" d="m342.277 220.436 2.993 1.725 74.688-43.119-2.993-1.741-74.688 43.135Z"/><path fill="#FAFAFA" d="m416.968 177.305-71.695 41.41v-62.158l71.695-41.393v62.141Z"/><path fill="#EBEBEB" d="m422.95 108.266-80.673 46.567v72.506l80.673-46.584v-72.489Zm-2.992 70.764-74.688 43.135v-65.607l74.688-43.118v65.59Z"/><path fill="#E0E0E0" d="m419.958 179.045-2.993-1.742v-62.141l2.993-1.724v65.607Z"/><path fill="#F5F5F5" d="m422.951 108.264-2.993-1.725-80.673 46.568 2.993 1.724 80.673-46.567Z"/><path fill="#E0E0E0" d="m339.285 153.105 2.993 1.725v72.506l-2.993-1.725v-72.506ZM402.913 166.873c2.773-1.691 5.072-.321 5.072 2.908a11.155 11.155 0 0 1-5.072 8.725c-2.79 1.607-5.073.305-5.073-2.908a11.122 11.122 0 0 1 5.073-8.725ZM362.161 153.732l37.961-21.982c1.065-.609 1.91-.101 1.91 1.116v.102a4.2 4.2 0 0 1-1.91 3.381l-37.961 21.982c-1.066.609-1.911.119-1.911-1.116v-.118c.026-.673.213-1.33.546-1.915.332-.586.8-1.083 1.365-1.45Z"/><path fill="#F0F0F0" d="m356.143 171.012 49.983-28.864c1.048-.609 1.911-.321 1.911.626a3.85 3.85 0 0 1-1.911 2.824l-50.017 28.88c-1.065.609-1.911.322-1.894-.625a3.924 3.924 0 0 1 1.928-2.841ZM356.143 177.894l49.983-28.847c1.048-.609 1.911-.338 1.911.626a3.85 3.85 0 0 1-1.911 2.823l-50.017 28.881c-1.065.609-1.911.321-1.894-.643a3.935 3.935 0 0 1 1.928-2.84ZM356.143 184.793l49.983-28.847c1.048-.609 1.911-.338 1.911.609a3.846 3.846 0 0 1-1.911 2.841l-50.017 28.863c-1.065.609-1.911.339-1.894-.625a3.924 3.924 0 0 1 1.928-2.841Z"/><path fill="#E0E0E0" d="M393.936 181.619a2.869 2.869 0 0 1-1.252.338c-1.065 0-.964-1.099-.93-1.843 0-.338-.456-.862-.71-.423-.642 1.184-1.471 2.266-2.164 3.382-.423.693-1.235 2.266-2.266 2.046-.423-.101-.558-.558-.558-1.133a5.629 5.629 0 0 0 .659-3.111c0-.321-.591-.727-.761-.287a10.154 10.154 0 0 0-.71 2.891 19.129 19.129 0 0 1-1.606 2.401c-.355.474-.66.981-1.048 1.42 0 .102-.271.356-.406.389-.136.034-.322-.152-.372-.389a2.62 2.62 0 0 1 .169-1.014v-.085c0-.338-.44-.845-.626-.422a14.998 14.998 0 0 1-2.874 4.869l-.186.17v-.609a4.685 4.685 0 0 0-.237-1.353c0-.22-.457-.558-.66-.27a23.195 23.195 0 0 1-3.381 4.599 4.846 4.846 0 0 1-.609.439c-.237-.135.118-1.335.169-1.521.135-.541.321-1.083.49-1.607.179-.425.315-.867.406-1.319 0-.422-.642-1.048-.778-.49 0 .22-.253.761-.456 1.437a33.411 33.411 0 0 1-2.807 4.752 10.852 10.852 0 0 1-3.991 3.821c-.439.237-1.268.575-1.691.237-.422-.338-.439-.981-.456-1.42-.01-1.173.149-2.34.473-3.467a20.785 20.785 0 0 0 4.329-3.06 14.84 14.84 0 0 0 3.28-3.619c.44-.812.711-2.13-.372-2.587-.744-.304-1.69.22-2.333.575a10.118 10.118 0 0 0-2.384 1.843 13.744 13.744 0 0 0-2.976 5.445c-.102.321-.22.727-.338 1.2a9.303 9.303 0 0 1-5.513.913c-.101 0-.135.22 0 .237a9.007 9.007 0 0 0 5.377-.507c-.473 2.08-.744 4.853 1.201 5.377 1.944.524 4.295-1.894 5.343-3.28a22.056 22.056 0 0 0 2.08-3.382l.186-.254c0 .981.186 1.691 1.133 1.522.947-.169 1.843-1.522 2.367-2.266s.964-1.42 1.421-2.147c.084.862.253 1.86 1.082 1.691.828-.17 1.522-1.607 1.91-2.199.389-.591.66-1.031.947-1.572.046.105.109.202.186.287.694.744 1.522 0 1.962-.642a32.771 32.771 0 0 0 1.944-2.655c.148.404.444.737.829.93 1.065.507 2.08-.372 2.688-1.167a22.513 22.513 0 0 0 2.013-3.229 1.557 1.557 0 0 0 .744 1.031 2.464 2.464 0 0 0 2.502-.169c.237-.203-.084-.913-.439-.744Zm-23.386 4.177c.491-.254 1.522-.677 1.59.169a2.876 2.876 0 0 1-.677 1.454 18.61 18.61 0 0 1-2.908 3.094 24.51 24.51 0 0 1-3.602 2.773 11.691 11.691 0 0 1 5.597-7.49Z"/><path fill="#F0F0F0" d="m342.277 319.544 2.993 1.725 74.688-43.118-2.993-1.725-74.688 43.118Z"/><path fill="#FAFAFA" d="m416.968 276.427-71.695 41.394v-62.158l71.695-41.393v62.157Z"/><path fill="#EBEBEB" d="m422.95 207.371-80.673 46.585v72.489l80.673-46.585v-72.489Zm-2.992 70.798-74.688 43.118V255.68l74.688-43.135v65.624Z"/><path fill="#E0E0E0" d="m419.958 278.15-2.993-1.725v-62.157l2.993-1.725v65.607Z"/><path fill="#F5F5F5" d="m422.951 207.369-2.993-1.724-80.673 46.584 2.993 1.725 80.673-46.585Z"/><path fill="#E0E0E0" d="m339.285 252.227 2.993 1.724v72.489l-2.993-1.724v-72.489ZM402.913 265.977c2.773-1.606 5.072-.304 5.072 2.909a11.215 11.215 0 0 1-5.072 8.741c-2.79 1.607-5.073.305-5.073-2.925a11.125 11.125 0 0 1 5.073-8.725ZM362.161 252.806l37.961-21.982c1.065-.609 1.91-.119 1.91 1.099v.101a4.2 4.2 0 0 1-1.91 3.382l-37.961 21.982c-1.066.609-1.911.118-1.911-1.099v-.102a4.213 4.213 0 0 1 1.911-3.381Z"/><path fill="#F0F0F0" d="m356.143 270.121 49.983-28.847c1.048-.608 1.911-.338 1.911.609a3.846 3.846 0 0 1-1.911 2.841l-50.017 28.863c-1.065.609-1.911.339-1.894-.625a3.929 3.929 0 0 1 1.928-2.841ZM356.143 277.02l49.983-28.864c1.048-.609 1.911-.321 1.911.626a3.846 3.846 0 0 1-1.911 2.823l-50.017 28.881c-1.065.609-1.911.321-1.894-.626a3.925 3.925 0 0 1 1.928-2.84ZM356.143 283.898l49.983-28.847c1.048-.609 1.911-.338 1.911.625a3.85 3.85 0 0 1-1.911 2.824l-50.017 28.881c-1.065.609-1.911.321-1.894-.643a3.935 3.935 0 0 1 1.928-2.84Z"/><path fill="#E0E0E0" d="M393.933 280.722a2.882 2.882 0 0 1-1.251.338c-1.066 0-.964-1.099-.93-1.843 0-.338-.457-.862-.711-.406-.642 1.167-1.471 2.249-2.164 3.382-.423.693-1.234 2.266-2.266 2.046-.423-.084-.558-.541-.558-1.116a5.735 5.735 0 0 0 .66-3.128c0-.321-.592-.71-.761-.271a9.954 9.954 0 0 0-.643 2.858 17.969 17.969 0 0 1-1.606 2.401c-.355.474-.66.981-1.049 1.42 0 .102-.27.372-.405.389-.136.017-.389-.169-.389-.389-.01-.346.047-.69.169-1.014v-.085c0-.338-.44-.845-.626-.422a14.635 14.635 0 0 1-2.925 4.869l-.186.169v-.608a4.651 4.651 0 0 0-.237-1.353c0-.22-.456-.558-.659-.254a24.166 24.166 0 0 1-3.382 4.6 6.515 6.515 0 0 1-.693.473c-.237-.118.118-1.336.169-1.522.135-.541.321-1.065.49-1.691.178-.425.314-.867.406-1.318 0-.406-.643-1.049-.778-.491 0 .22-.253.778-.456 1.454a34.235 34.235 0 0 1-2.807 4.735 10.868 10.868 0 0 1-3.906 3.771c-.44.236-1.268.591-1.691.236-.423-.355-.44-.964-.457-1.42a11.946 11.946 0 0 1 .474-3.382 22.127 22.127 0 0 0 4.328-3.06 15.215 15.215 0 0 0 3.281-3.636c.439-.795.71-2.113-.372-2.57-.744-.321-1.691.203-2.334.558a10.138 10.138 0 0 0-2.384 1.843 13.699 13.699 0 0 0-3.043 5.411c-.102.304-.22.71-.339 1.184a9.298 9.298 0 0 1-5.512.913c-.101 0-.135.219 0 .236a9.007 9.007 0 0 0 5.377-.507c-.473 2.097-.744 4.853 1.201 5.394 1.944.541 4.295-1.894 5.343-3.297a22.214 22.214 0 0 0 2.08-3.382c.052-.086.115-.165.186-.237 0 .964.186 1.691 1.133 1.505.947-.186 1.843-1.522 2.367-2.266s.964-1.42 1.42-2.147c.085.879.254 1.86 1.082 1.691.829-.169 1.522-1.606 1.911-2.198.389-.592.66-1.032.947-1.556.046.1.109.192.186.271.693.744 1.522 0 1.961-.626.643-.845 1.353-1.691 1.945-2.672.144.411.441.75.829.947 1.065.491 2.079-.389 2.688-1.183a22.484 22.484 0 0 0 2.012-3.23 1.482 1.482 0 0 0 .744 1.031 2.412 2.412 0 0 0 2.503-.169c.304-.135-.017-.845-.372-.676Zm-23.385 4.21c.49-.253 1.521-.676 1.589.169a2.873 2.873 0 0 1-.676 1.455 18.028 18.028 0 0 1-2.909 3.094 24.56 24.56 0 0 1-3.601 2.739 11.686 11.686 0 0 1 5.597-7.457ZM808.334 675.538l119.513 68.989a14.182 14.182 0 0 0 12.834 0l65.369-37.741c3.54-2.046 3.54-5.36 0-7.406l-119.512-69.006a14.179 14.179 0 0 0-12.833 0l-65.371 37.758c-3.534 2.046-3.534 5.36 0 7.406ZM690.24 657.122c28.897 16.689 75.769 16.689 104.667 0 28.897-16.689 28.897-43.744 0-60.433-28.898-16.689-75.77-16.689-104.667 0-28.898 16.689-28.898 43.744 0 60.433ZM409.078 734.887c49.475 28.56 129.692 28.56 179.236 0 49.543-28.559 49.475-74.873 0-103.449-49.476-28.577-129.693-28.56-179.236 0-49.544 28.559-49.476 74.89 0 103.449Z"/><path fill="#E6E6E6" d="M1050.67 704.4 721.895 514.579c-4.058-2.334-4.058-6.121 0-8.455l26.564-15.353a16.174 16.174 0 0 1 14.644 0l328.777 189.838c4.04 2.333 4.04 6.104 0 8.454l-26.56 15.337a16.194 16.194 0 0 1-14.65 0Z"/><path fill="url(#e)" d="m649.97 509.736 19.141-27.021-17.416-27.105-19.074-11.008-4.193 5.918-15.81-9.165-32.871 18.989v31.434l-19.987-5.106-17.416 47.227 19.158 11.024-19.158 27.021 17.416 27.105 19.073 11.025 4.177-5.901 15.827 9.131 32.871-18.989v-31.434l19.987 5.106 17.416-47.21-19.141-11.041Z"/><path fill="#fff" d="m649.97 509.736 19.141-27.021-17.416-27.105-19.074-11.008-4.193 5.918-15.81-9.165-32.871 18.989v31.434l-19.987-5.106-17.416 47.227 19.158 11.024-19.158 27.021 17.416 27.105 19.073 11.025 4.177-5.901 15.827 9.131 32.871-18.989v-31.434l19.987 5.106 17.416-47.21-19.141-11.041Z" opacity=".8"/><path fill="url(#f)" d="m628.426 450.52 3.28 1.86v31.434l19.987-28.205-19.074-11.007-4.193 5.918Z" opacity=".5"/><path fill="url(#g)" d="m559.758 486.672 19.073 11.008 20.004 5.106-19.091-11.008-19.986-5.106Z" opacity=".3"/><path fill="url(#h)" d="m579.746 460.344 19.09 11.008v31.433l-19.09-11.007v-31.434Z" opacity=".5"/><path fill="url(#i)" d="m559.76 486.672 19.073 11.008-17.416 47.227-19.073-11.008 17.416-47.227Z" opacity=".5"/><path fill="url(#j)" d="m584.244 550.74-22.827-5.834-19.073 27.038 19.073 11.008 22.827-32.212Z" opacity=".5"/><path fill="url(#k)" d="m542.344 571.941 19.073 11.008 17.416 27.122-19.073-11.024-17.416-27.106Z" opacity=".65"/><path fill="url(#l)" d="m598.835 613.302-15.827-9.131 15.827-22.319v31.45Z" opacity=".65"/><path fill="url(#m)" d="m669.108 520.776-22.827-5.851 3.686-5.191 19.141 11.042Z" opacity=".5"/><path fill="#FAFAFA" d="m638.236 515.908 24.146-34.071-12.547-19.53-20.713 29.201-3.179-1.843v-30.52l-24.535 14.152v34.207l-21.745-5.563-14.339 38.874 20.612 5.276 3.179 1.843-24.146 34.072 12.563 19.53 20.697-29.202 3.179 1.826v30.538l24.535-14.153v-34.207l21.762 5.563 14.339-38.874-20.629-5.293-3.179-1.826Z"/><path fill="url(#n)" d="m598.295 572.384-20.696 29.202 2.13 3.382 21.745-30.69-3.179-1.894Zm49.476-10.433-21.762-5.563v34.207l-24.535 14.153v3.669l27.714-15.996v-34.258l21.762 5.563 14.677-39.804-3.517-.913-14.339 38.942Zm-6.29-44.166 24.146-34.055-14.745-22.946-1.048 1.488 12.547 19.53-24.147 34.106 3.247 1.877Zm-12.293-60.433-3.246 1.741v30.538l3.178 1.826.068-34.105Zm-43.186 88.806-20.612-5.293-.355.947 24.146 6.172-3.179-1.826Z"/><path fill="#fff" d="m598.295 572.384-20.696 29.202 2.13 3.382 21.745-30.69-3.179-1.894Zm49.476-10.433-21.762-5.563v34.207l-24.535 14.153v3.669l27.714-15.996v-34.258l21.762 5.563 14.677-39.804-3.517-.913-14.339 38.942Zm-6.29-44.166 24.146-34.055-14.745-22.946-1.048 1.488 12.547 19.53-24.147 34.106 3.247 1.877Zm-12.293-60.433-3.246 1.741v30.538l3.178 1.826.068-34.105Zm-43.186 88.806-20.612-5.293-.355.947 24.146 6.172-3.179-1.826Z" opacity=".7"/><path fill="url(#o)" d="m625.941 590.543 3.179 1.826v-34.207l-3.179-1.826v34.207Z" opacity=".35"/><path fill="url(#p)" d="m647.703 561.897 3.179 1.827 14.677-39.804-3.517-.897-14.339 38.874Z" opacity=".35"/><path fill="url(#q)" d="m601.411 574.158-3.179-1.826-20.697 29.202 2.131 3.314 21.745-30.69Z" opacity=".35"/><path fill="url(#r)" d="m662.382 481.834 3.179 1.843-14.677-22.861-1.048 1.488 12.546 19.53Z" opacity=".35"/><path fill="url(#s)" d="m629.12 491.508-3.179-1.843v-30.521l3.179-1.843v34.207Z" opacity=".35"/><path fill="url(#t)" d="m589.115 547.935-3.179-1.843-20.612-5.276-.355.947 24.146 6.172Z" opacity=".35"/><path fill="#455A64" d="M613.512 585.742h.186l-.102 7.981-.084-7.981ZM613.954 561.983V582.781h-.237v-12.107l-.084-8.725.321.034ZM614.327 527.914l-.136 11.431-.186 17.433-.811-.203-.102-10.061v-5.8l-.135-12.563 1.048-.169.322-.068ZM616.659 487.266a7.76 7.76 0 0 1-1.962 4.92l-.118 11.752v5.073l-.135 12.513h-1.573l-.118-10.788-.102-8.32-.084-8.995c-1.15 0-1.962-.947-1.962-2.672a7.353 7.353 0 0 1 3.044-5.833c1.64-.93 3.01.101 3.01 2.35Z"/><path fill="#455A64" d="M623.104 497.848a14.539 14.539 0 0 0-7.778 3.381v6.172a29.059 29.059 0 0 1 6.763-3.99s-.338 1.843.474 2.198a7.171 7.171 0 0 0 5.935-.862c1.572-1.505.44-6.764-5.394-6.899Zm1.86 4.565c-.389.203-.693 0-.693-.524a1.687 1.687 0 0 1 .693-1.302c.372-.22.676 0 .676.524a1.679 1.679 0 0 1-.676 1.302Zm-9.858 20.071h-3.01c-2.147 0-3.72-.71-3.72-3.077a13.816 13.816 0 0 1 3.585-8.945v-6.426c-4.667 4.6-8.59 10.856-8.59 17.4 0 6.544 4.396 6.493 8.827 5.816l.727-.101 1.454-.254.727-.135c3.382-.558 6.138-.828 6.138 2.012 0 3.23-2.993 6.899-6.273 10.788v3.754c4.21-4.971 9.046-10.484 9.046-16.114 0-5.631-4.718-5.022-8.911-4.718Zm-.389 35.509-.727-.152-.778-.169-.727-.186c-2.063-.558-3.771-1.454-3.771-3.957 0-2.13 1.539-4.565 3.653-7.237v-3.703c-3.179 3.872-5.986 7.88-5.986 11.836 0 4.836 3.196 5.648 6.189 6.138l.727.119.71.118.727.135c1.691.372 2.959.964 2.959 2.756 0 2.249-1.42 4.295-3.06 6.409v2.57c2.35-2.925 5.072-6.036 5.072-10.585-.135-2.807-2.485-3.483-4.988-4.041v-.051Zm-.287 25.939a4.962 4.962 0 0 1-.711 0 .892.892 0 0 1-.219 0 2.218 2.218 0 0 1-.727-.271c-.981-.507-1.691-1.606-1.691-3.771a8.45 8.45 0 0 1 1.521-4.531v-2.604a12.324 12.324 0 0 0-2.925 7.321c0 2.79 1.251 4.329 3.044 4.633.247.018.496.018.744 0h.186l.727-.101a7.348 7.348 0 0 0 2.181-.845c-.701.143-1.415.216-2.13.219v-.05Z"/><path fill="url(#u)" d="m598.836 471.352 32.872-18.972-19.091-11.025-32.871 18.989 19.09 11.008Z" opacity=".2"/><path fill="url(#v)" d="m1047.8 687.979 6.29-3.619a7.955 7.955 0 0 0 3.58-6.222v-504.11a7.955 7.955 0 0 0-3.58-6.222L764.823.863a7.879 7.879 0 0 0-7.169 0l-6.308 3.635a7.92 7.92 0 0 0-3.584 6.206v504.059a7.943 7.943 0 0 0 3.584 6.222l289.264 166.994a7.89 7.89 0 0 0 3.59.863c1.25 0 2.48-.296 3.6-.863Z"/><path fill="#000" d="m1047.8 687.979 6.29-3.619a7.955 7.955 0 0 0 3.58-6.222v-504.11a7.955 7.955 0 0 0-3.58-6.222L764.823.863a7.879 7.879 0 0 0-7.169 0l-6.308 3.635a7.92 7.92 0 0 0-3.584 6.206v504.059a7.943 7.943 0 0 0 3.584 6.222l289.264 166.994a7.89 7.89 0 0 0 3.59.863c1.25 0 2.48-.296 3.6-.863Z" opacity=".3"/><path fill="url(#w)" d="M747.797 10.078c.254-1.86 1.691-2.536 3.551-1.488l289.262 166.994a7.364 7.364 0 0 1 2.54 2.672l13.52-7.778a7.392 7.392 0 0 0-2.53-2.672L764.841.863a7.913 7.913 0 0 0-7.186 0l-6.307 3.618a8.059 8.059 0 0 0-3.551 5.597Z" opacity=".4"/><path fill="#000" d="M1041.3 688.269c.07.043.15.072.22.085l.38.135h.13l.68.169c1.43.267 2.91.145 4.28-.355.27-.101.54-.236.79-.355l6.29-3.635a7.983 7.983 0 0 0 2.53-2.687 8.15 8.15 0 0 0 1.06-3.536V174.031a7.306 7.306 0 0 0-1.05-3.551l-13.53 7.779a7.423 7.423 0 0 1 1.07 3.551v504.109c.03.677-.17 1.345-.56 1.894-.23.273-.53.476-.87.584-.34.108-.7.116-1.04.025l-.38-.153Z" opacity=".15"/><path fill="#455A64" d="m835.383 96.698 121.238 70.004 6.763-3.889v-18.702c0-2.367-.372-5.444-9.469-17.991-9.097-12.546-9.35-16.909-13.527-22.557-4.176-5.647-11.667-9.925-17.01-23.233-5.344-13.307-5.834-33.818-20.646-42.272a13.26 13.26 0 0 0-6.494-2.097 6.66 6.66 0 0 0-3.381.93l-6.189 3.568-.558.321 1.775 2.62c-2.046 4.499-3.381 9.943-5.732 13.038a9.48 9.48 0 0 1-6.882 4.092c-3.804.44-7.609-1.049-10.145-.423-.593.161-1.161.4-1.691.71l-6.764 3.89.457.557c-.86.407-1.74.768-2.638 1.083-.812.253-1.691.524-2.773.76a22.314 22.314 0 0 0-6.967 2.47l-5.968 3.381-.542.321-2.857 23.42Zm111.042 42.628c0-2.435 1.268-3.669 2.84-2.756a7.606 7.606 0 0 1 2.875 6.07c0 2.435-1.302 3.636-2.875 2.739a7.506 7.506 0 0 1-2.129-2.693 7.51 7.51 0 0 1-.711-3.36Zm-61.211-69.327c0-7.829 3.483-12.344 8.201-11.43a6.069 6.069 0 0 1 9.317-2.841c5.968 3.381 10.804 13.68 10.804 22.86 0 7.796-3.5 12.344-8.184 11.431-1.876 3.855-5.36 5.157-9.333 2.858-5.986-3.433-10.805-13.663-10.805-22.861v-.017Zm-32.33 15.404c0-2.452 1.285-3.67 2.874-2.756a7.557 7.557 0 0 1 2.925 6.003c0 2.417-1.285 3.652-2.857 2.739a7.5 7.5 0 0 1-2.942-5.986Z"/><path fill="#37474F" d="m949.892 148.728 13.037-7.525c.291.942.433 1.923.422 2.908v18.702l-6.763 3.889-6.764-3.889.068-14.085ZM936.467 125.392l-6.764-15.556 10.704-6.274c3.145 4.346 4.058 7.863 8.285 14.762l-12.225 7.068ZM909.411 94.28l-.879-4.53c2.976-1.252 4.954-5.276 4.954-11.144 0-7.795-3.483-16.334-8.201-20.849l9.334-5.394c3.99 9.063 5.462 19.767 8.708 27.9a62.37 62.37 0 0 0 2.164 4.735l-16.08 9.283Z" opacity=".5"/><path fill="#37474F" d="M835.385 77.995v18.702L956.623 166.7v-18.735c0-2.367-.355-5.428-9.452-17.991-9.097-12.564-9.368-16.808-13.528-22.557-4.159-5.749-11.65-9.909-16.909-23.3-5.258-13.392-5.833-33.666-20.646-42.273-4.108-2.367-7.101-2.553-9.418-1.488l-.558.321c-5.58 3.297-6.949 14.508-10.686 19.547a2.154 2.154 0 0 0-.153.203c-5.343 6.916-12.783 2.469-16.909 3.382a6.768 6.768 0 0 0-1.809.727 13.647 13.647 0 0 0-2.181 1.69 19.479 19.479 0 0 1-9.486 4.634 27.14 27.14 0 0 0-6.223 2.029l-.541.321a4.712 4.712 0 0 0-2.739 4.785Zm104.312 65.219c0-2.435 1.268-3.687 2.858-2.773a7.621 7.621 0 0 1 2.857 6.07c0 2.435-1.285 3.669-2.857 2.756a7.538 7.538 0 0 1-2.858-6.053Zm-54.481-73.2c0-7.828 3.483-12.343 8.201-11.43a9.064 9.064 0 0 1 2.604 1.031c5.969 3.382 10.805 13.697 10.805 22.878a17.25 17.25 0 0 1-1.471 7.542c-1.877 3.855-5.361 5.157-9.334 2.857-5.986-3.45-10.805-13.68-10.805-22.878Zm-39.043 19.21c0-2.436 1.285-3.67 2.858-2.757a7.512 7.512 0 0 1 2.891 6.053c0 2.435-1.268 3.653-2.858 2.74a7.548 7.548 0 0 1-2.891-6.037Z"/><path fill="#263238" d="M885.215 70.016c0 9.198 4.819 19.428 10.805 22.878 3.973 2.3 7.457.997 9.334-2.858a8.26 8.26 0 0 1-2.621-1.031c-5.969-3.382-10.805-13.68-10.805-22.861-.08-2.6.429-5.184 1.488-7.559-4.718-.913-8.201 3.602-8.201 11.43ZM942.555 149.267c1.572.896 2.857-.321 2.857-2.756a7.635 7.635 0 0 0-2.857-6.071c-1.59-.896-2.858.339-2.858 2.774a7.508 7.508 0 0 0 2.858 6.053ZM849.031 95.277c1.589.913 2.874-.322 2.874-2.74a7.556 7.556 0 0 0-2.874-6.07c-1.573-.913-2.858.338-2.858 2.756a7.556 7.556 0 0 0 2.858 6.053Z"/><path fill="#F5F5F5" d="M1021.84 205.832 770.136 60.515a4.733 4.733 0 0 0-4.311 0l-2.418 1.404a4.754 4.754 0 0 0-2.165 3.737V500.86a4.771 4.771 0 0 0 2.165 3.737L1015.1 649.914c.67.342 1.4.52 2.15.52s1.49-.178 2.16-.52l2.43-1.403a4.733 4.733 0 0 0 1.52-1.614c.37-.649.59-1.376.63-2.123V209.569a4.813 4.813 0 0 0-.63-2.123 4.724 4.724 0 0 0-1.52-1.614Z"/><path fill="#E0E0E0" d="M1015.62 650.17c.26.105.52.173.8.203h.4c.44.05.88.05 1.32 0 .27-.032.54-.1.8-.203l.47-.237 2.43-1.386a4.754 4.754 0 0 0 1.52-1.615c.37-.649.59-1.375.63-2.122V209.588a4.442 4.442 0 0 0-.62-2.131l-6.77 3.889c.38.644.59 1.369.63 2.114v435.205c.03 1.184-.66 1.759-1.61 1.505Z"/><path fill="url(#x)" d="m763.407 61.919 2.418-1.404a4.732 4.732 0 0 1 4.311 0l251.704 145.317c.63.412 1.15.965 1.52 1.614.37.649.59 1.376.63 2.123v71.762l-6.76 3.906-255.988-147.802v-71.78a4.755 4.755 0 0 1 2.165-3.736Z"/><path fill="#fff" d="m763.407 61.919 2.418-1.404a4.732 4.732 0 0 1 4.311 0l251.704 145.317c.63.412 1.15.965 1.52 1.614.37.649.59 1.376.63 2.123v71.762l-6.76 3.906-255.988-147.802v-71.78a4.755 4.755 0 0 1 2.165-3.736Z" opacity=".4"/><path fill="url(#y)" d="M761.328 64.996c.271-.88 1.099-1.166 2.063-.592L1015.1 209.721c.64.394 1.17.948 1.54 1.606l6.76-3.872a4.217 4.217 0 0 0-1.52-1.691L770.138 60.515a4.705 4.705 0 0 0-4.295 0l-2.452 1.404a4.84 4.84 0 0 0-2.063 3.077Z"/><path fill="#fff" d="M761.328 64.996c.271-.88 1.099-1.166 2.063-.592L1015.1 209.721c.64.394 1.17.948 1.54 1.606l6.76-3.872a4.217 4.217 0 0 0-1.52-1.691L770.138 60.515a4.705 4.705 0 0 0-4.295 0l-2.452 1.404a4.84 4.84 0 0 0-2.063 3.077Z" opacity=".6"/><path fill="url(#z)" d="M1023.99 209.571v71.779l-6.76 3.889V213.46c-.04-.75-.25-1.48-.63-2.131l6.77-3.872c.38.638.6 1.367.62 2.114Z"/><path fill="url(#A)" d="m836.265 267.5 12.868-19.411-9.672-5.58-8.455 13.003-9.875-27.63a6.554 6.554 0 0 0 4.278-3.939 20.297 20.297 0 0 0 1.573-8.455 31.265 31.265 0 0 0-15.844-27.325l-12.259-7.085v53.974l7.981 4.616v-17.163l5.326 3.078 13.528 35.052-13.257 20.291 9.892 5.715 8.725-13.527 8.218 23.368 10.28 5.935-13.307-34.917Zm-29.388-55.275v-16.284l5.715 3.382a10.575 10.575 0 0 1 4.887 5.495 18.225 18.225 0 0 1 1.268 6.341 6.63 6.63 0 0 1-1.488 4.6c-.981 1.127-2.553 1.059-4.718-.203l-5.664-3.331Z"/><path fill="#E0E0E0" d="m998.086 318.806-110.231-63.645v-22.692l110.231 63.629v22.708ZM998.086 343.137l-110.23-63.645a5.251 5.251 0 0 1-1.995-4.228c0-1.691.896-2.553 1.995-1.927l110.23 63.645a5.298 5.298 0 0 1 1.49 1.882c.345.733.514 1.535.504 2.346 0 1.707-.895 2.57-1.994 1.927ZM998.085 363.886l-110.23-63.645a5.295 5.295 0 0 1-1.995-4.228c0-1.691.896-2.57 1.995-1.927l110.23 63.645a5.287 5.287 0 0 1 1.995 4.228c0 1.707-.895 2.553-1.995 1.927ZM998.086 384.7l-110.23-63.646a5.234 5.234 0 0 1-1.995-4.227c0-1.691.896-2.554 1.995-1.911l110.23 63.629a5.31 5.31 0 0 1 1.994 4.244c0 1.606-.895 2.469-1.994 1.911ZM998.088 427.615 786.082 305.227a5.31 5.31 0 0 1-1.995-4.244c0-1.691.896-2.553 1.995-1.911L998.088 421.46a5.292 5.292 0 0 1 1.992 4.227c0 1.708-.893 2.57-1.992 1.928ZM998.088 453.588 786.082 331.2a5.302 5.302 0 0 1-1.995-4.244c0-1.691.896-2.554 1.995-1.911l212.006 122.388a5.283 5.283 0 0 1 1.992 4.227c0 1.708-.893 2.57-1.992 1.928ZM998.088 479.56 786.082 357.172a5.306 5.306 0 0 1-1.995-4.244c0-1.691.896-2.553 1.995-1.91l212.006 122.387a5.317 5.317 0 0 1 1.491 1.89c.346.736.521 1.541.501 2.354 0 1.742-.893 2.554-1.992 1.911ZM998.088 505.533 786.082 383.145a5.31 5.31 0 0 1-1.995-4.244c0-1.691.896-2.553 1.995-1.911l212.006 122.388a5.308 5.308 0 0 1 1.992 4.244c0 1.691-.893 2.553-1.992 1.911Z"/><path fill="url(#B)" d="M998.084 564.359 786.079 441.955a1.7 1.7 0 0 1-.66-1.404c0-.558.304-.845.66-.642l212.005 122.337a1.693 1.693 0 0 1 .66 1.403c0 .643-.288.93-.66.71Z"/><path fill="#455A64" d="M801.078 505.663c-7.643-4.43-13.883-17.602-13.883-29.388 0-11.786 6.24-17.771 13.883-13.358 7.643 4.413 13.882 17.602 13.882 29.388 0 11.785-6.223 17.771-13.882 13.358Zm0-40.7c-6.916-3.991-12.547 1.437-12.547 12.073 0 10.636 5.631 22.574 12.547 26.564 6.915 3.991 12.546-1.42 12.546-12.073s-5.664-22.557-12.546-26.564Z"/><path fill="#455A64" d="M810.718 489.856c0 8.184-4.312 12.344-9.638 9.266-5.327-3.077-9.639-12.208-9.639-20.392s4.329-12.343 9.639-9.266c5.309 3.077 9.638 12.191 9.638 20.392Z"/><path fill="#E0E0E0" d="m896.699 530.135-67.484-38.959v-5.512l67.484 38.959v5.512ZM896.699 542.24l-67.484-38.958v-5.512l67.484 38.958v5.512ZM896.699 554.348l-67.484-38.958v-5.495l67.484 38.958v5.495Z"/><path fill="#455A64" d="M992.527 602.437c-.203 1.082-1.15.845-1.826.084a12.05 12.05 0 0 1-1.59-2.891 62.186 62.186 0 0 1-2.164-5.867 57.384 57.384 0 0 1-2.165-10.383c0-.761-.135-1.504-.219-2.265-.153-1.269-1.607-2.317-1.505-.897 0 .795.135 1.59.219 2.401a45.57 45.57 0 0 1-.135 9.03 18.496 18.496 0 0 1-2.553 8.454c-.609.778-1.454 1.438-2.452 1.049-.997-.389-2.164-2.452-2.891-4.194a55.702 55.702 0 0 1-2.165-6.256c.232-.37.441-.754.626-1.15a39.78 39.78 0 0 0 2.891-12.225c.372-3.635.795-8.894-1.877-12.597-5.664-7.846-5.546 10.416-5.072 15.083.352 3.31.956 6.589 1.809 9.807a4.206 4.206 0 0 1-.93.896c-.913.592-1.995.558-3.111-.727a6.867 6.867 0 0 1-1.691-3.957l.101-1.048c0-.93-1.183-2.232-1.352-1.319v.237c0 .287 0 .575-.085.862a33.97 33.97 0 0 1-1.285-4.667c-.152-.828-1.116-1.792-1.37-1.099l-1.521 4.244a21.221 21.221 0 0 1-.474-7.49c.135-1.083-1.268-2.486-1.522-1.522a15.838 15.838 0 0 1-2.316 5.698 2.475 2.475 0 0 1-2.026.985 2.468 2.468 0 0 1-1.982-1.069l-.186-.22c.44-.643.863-1.336 1.252-2.046a10.62 10.62 0 0 0 2.012-7.491c-.541-3.027-2.621-5.326-4.025-4.193-2.181 1.69-3.381 7.795-1.386 12.715-1.691 2.131-3.906 3.483-6.629 2.553-2.722-.93-5.749-4.227-6.932-9.063a21.703 21.703 0 0 1-.643-5.681c1.282.6 2.643 1.016 4.042 1.234a8.653 8.653 0 0 0 9.384-4.785 9.029 9.029 0 0 0 .524-7.88 7.651 7.651 0 0 0-5.073-5.073c-3.787-.676-7.017 2.571-8.792 6.764a22.884 22.884 0 0 0-1.691 6.967 45.39 45.39 0 0 1-8.556-5.986c-.795-.677-.896.778-.169 1.471a47.527 47.527 0 0 0 8.64 6.544 24.724 24.724 0 0 0 1.083 7.66c1.809 5.968 5.85 9.79 9.232 10.551 2.773.625 5.073-.744 6.763-2.925 1.691 2.232 3.737 2.857 5.242 2.113a5.356 5.356 0 0 0 2.215-2.672 29.688 29.688 0 0 0 1.421 5.716c.253.744 1.099 1.386 1.319.761l1.437-4.109a35.732 35.732 0 0 0 1.928 5.225c.202.405.659.794.946.744a9.89 9.89 0 0 0 2.824 3.821 2.786 2.786 0 0 0 2.083.726 2.789 2.789 0 0 0 1.958-1.013c.119.372.203.744.322 1.099 1.285 3.889 3.196 9.063 5.935 10.145 3.077 1.302 4.717-2.942 5.563-6.442.438-1.919.726-3.87.862-5.834a83.912 83.912 0 0 0 1.691 5.648 27.518 27.518 0 0 0 3.382 7.186c1.353 1.691 2.993 2.046 3.382 0 .287-.811-.592-2.181-.727-1.437Zm-55.699-43.964c1.387-3.534 3.771-6.036 6.629-6.476 1.403-.22 3.381.305 4.481 3.179a6.762 6.762 0 0 1-1.116 6.273c-2.79 4.228-6.933 4.397-11.346 2.604.21-1.888.665-3.741 1.352-5.512v-.068Zm14.407 10.585c.304-.574.947-1.927 1.691-1.082a4.727 4.727 0 0 1 .27 3.872 22.136 22.136 0 0 1-2.638 5.175 12.258 12.258 0 0 1 .677-7.897v-.068Zm20.747 17.366a44.546 44.546 0 0 1-.152-19.817c.355-1.285 1.032-2.232 2.164-.795a9.703 9.703 0 0 1 1.438 5.597 45.27 45.27 0 0 1-1.235 10.957 29.06 29.06 0 0 1-1.809 5.766c-.118-.524-.27-1.133-.406-1.708ZM816.228 106.326s2.418 9.368 3.246 14.39a3.25 3.25 0 0 0 1.319 2.029l145.266 83.784 2.705 1.539a.204.204 0 0 0 .22 0c.22-.136.322-.474.237-.947v-.102c-2.536-13.713-6.273-24.788-19.479-35.779l-21.12-15.827s-5.647-5.326-6.611-10.856l-1.319-7.406-2.452-14.474s-.355-4.261-5.614-9.401c-5.258-5.141-14.305-18.99-15.894-28.002-2.52-14.305-12.851-30.233-23.098-35.593a13.527 13.527 0 0 0-6.172-1.691 7.155 7.155 0 0 0-3.703.947l-6.527 3.736-.287.17c0 .845-1.251 28.305-5.513 28.407a4.643 4.643 0 0 0-.727 0 2.92 2.92 0 0 0-1.099.389l-6.577 3.804-.153.085 8.776 19.395c.981 5.512-2.198 6.053-3.77 5.41l-2.926-1.166c-4.041-1.691-7.423-3.264-15.218-6.764a7.288 7.288 0 0 0-6.763-.186l-6.764 3.872.017.237Zm50.456-44.59a5.47 5.47 0 0 1 2.79-3.805c1.505-.692 20.021 31.063 17.992 32.67a4.956 4.956 0 0 1-4.752.608c-1.065 3.99-4.227 5.411-8.573 3.129-6.307-3.382-12.648-13.105-14.203-21.88-1.387-7.88 1.555-12.277 6.746-10.721Z"/><path fill="#37474F" d="m948.305 186.866 10.585-6.104c6.155 8.082 8.606 16.588 10.433 26.445v.102c0 .473 0 .812-.237.947a.204.204 0 0 1-.22 0l-8.353-6.612-12.208-14.778ZM922.756 147.062l-14.914 8.607-5.072-30.267 13.408-7.761a12.77 12.77 0 0 1 2.114 5.072l2.452 14.475 1.319 7.406c.145.844.378 1.671.693 2.468ZM889.699 66.809a58.064 58.064 0 0 1 7.085 18.6 46.193 46.193 0 0 0 5.275 13.189l-12.8 7.389-6.375-14.694a4.924 4.924 0 0 0 4.583-.643c1.048-.828-3.382-9.62-8.049-17.873l10.281-5.968Z" opacity=".5"/><path fill="#37474F" d="M812.137 115.964s5.884 5.563 6.239 5.766c.355.203 2.046 1.15 2.046 1.15l145.672 83.751 2.705 1.538c-.507-.507-8.454-6.645-8.454-6.645a50.73 50.73 0 0 0-17.366-26.277l-21.086-15.827s-5.681-5.343-6.645-10.872l-1.302-7.389-2.452-14.491s-.355-4.245-5.613-9.385c-5.259-5.14-14.306-18.989-15.912-28.018-2.519-14.288-12.851-30.217-23.081-35.594-3.872-2.029-7.203-2.249-9.672-.947l-.287.186c-3.839 2.25-5.513 8.303-3.991 16.91a15.093 15.093 0 0 1-2.249 11.515 8.23 8.23 0 0 1-6.002 3.838 4.04 4.04 0 0 0-1.691.355l-.152.084c-2.114 1.201-1.286 4.363-1.286 4.363l2.013 11.532 1.319 7.389v.355c.811 5.191-2.266 5.682-3.788 5.073-5.698-2.266-8.59-3.652-18.194-7.88a7.296 7.296 0 0 0-6.764-.219h-.101c-2.266 1.555-3.653 4.954-3.906 9.739Zm54.548-54.227c.633.2 1.244.46 1.826.778 6.308 3.28 12.665 13.087 14.221 21.88a16.892 16.892 0 0 1 0 6.764c-1.065 3.99-4.227 5.41-8.573 3.128-6.307-3.382-12.648-13.105-14.203-21.88-1.404-7.83 1.538-12.226 6.729-10.67Z"/><path fill="#263238" d="M859.94 72.473c1.556 8.776 7.896 18.6 14.204 21.88 4.345 2.283 7.507.863 8.572-3.128a13.409 13.409 0 0 1-1.843-.76c-6.307-3.298-12.648-13.105-14.203-21.898a16.606 16.606 0 0 1 0-6.763c-5.174-1.624-8.117 2.773-6.73 10.67Z"/><path fill="#263238" d="M866.027 62.127h.575c.585.198 1.151.447 1.691.744 6.172 3.213 12.462 12.902 14.001 21.576a16.48 16.48 0 0 1 0 6.578 6.49 6.49 0 0 1-4.396 2.807c-2.706 0-12.462-9.858-13.984-14.069-1.065-3.026-3.568-12.496-.964-16.199a3.474 3.474 0 0 1 3.044-1.47m0-.407c-7.44 0-4.008 13.9-2.469 18.212 1.539 4.311 11.414 14.355 14.322 14.355a7.053 7.053 0 0 0 4.768-3.06 16.891 16.891 0 0 0 0-6.764c-1.555-8.793-7.913-18.6-14.22-21.88a10.391 10.391 0 0 0-1.826-.778 4.433 4.433 0 0 0-.66 0l.085-.084ZM968.815 208.187l-148.394-85.306-2.046-1.133c-.355-.22-6.223-5.783-6.223-5.783l148.259 85.577s8.996 6.949 8.404 6.645Z"/><path fill="#F0F0F0" d="m816.701 674.979 112.412 64.913a13.314 13.314 0 0 0 12.073 0l61.494-35.509c3.39-1.91 3.39-5.072 0-6.966L890.256 632.52a13.294 13.294 0 0 0-12.056 0l-61.499 35.509c-3.331 1.911-3.331 5.039 0 6.95Z"/><path fill="#fff" d="m816.686 671.714 112.428 64.914a13.331 13.331 0 0 0 12.073 0l61.503-35.509c3.38-1.928 3.38-5.073 0-6.967l-112.433-64.914a13.434 13.434 0 0 0-12.073 0l-61.498 35.509c-3.331 1.928-3.331 5.039 0 6.967Z"/><path fill="#FAFAFA" d="m941.189 736.626 55.462-32.026c-17.467 8.945-50.643 28.086-55.547 29.997-4.903 1.911-7.795 2.756-16.909-2.519-9.114-5.276-101.285-56.781-101.285-56.781l106.223 61.329a13.32 13.32 0 0 0 12.056 0Z"/><path fill="#E0E0E0" d="M968.597 714.543a1.697 1.697 0 0 1-1.505 0l-112.057-64.711c-.439-.237-.456-.626 0-.862a1.684 1.684 0 0 1 1.505 0l112.057 64.694c.456.253.473.642 0 .879Z"/><path fill="#FAFAFA" d="M878.353 655.04c.356.209.729.384 1.116.524l.44.169a13.239 13.239 0 0 0 10.145-.913l10.569-6.104a7.544 7.544 0 0 0 4.067-6.521 7.532 7.532 0 0 0-4.879-7.226l-.44-.152a13.286 13.286 0 0 0-10.145.896l-10.568 6.087h-.085a7.642 7.642 0 0 0-3.06 2.909 7.544 7.544 0 0 0-.754 5.733 7.53 7.53 0 0 0 3.527 4.581l.067.017Z" opacity=".7" style="mix-blend-mode:hard-light"/><path fill="#E0E0E0" d="M900.961 641.971a12.895 12.895 0 0 0-11.684.22l-10.568 6.104c-3.382 1.911-3.5 4.937-.372 6.763a12.878 12.878 0 0 0 11.684-.219l10.568-6.105c3.348-1.944 3.517-4.954.372-6.763Z"/><path fill="#fff" d="M903.901 645.452a7.521 7.521 0 0 0-4.024-10.534l-.44-.152a13.673 13.673 0 0 0-8.843.271c4.954-.508 8.015-.643 11.126 1.961a7.625 7.625 0 0 1 2.181 8.454Z"/><path fill="#F5F5F5" d="M885.08 640.397a3.118 3.118 0 0 1 3.128.321 9.75 9.75 0 0 1 4.413 7.643 3.107 3.107 0 0 1-1.302 2.858l-5.681 3.263a6.26 6.26 0 0 1-8.302-2.42 6.256 6.256 0 0 1 2.046-8.401l5.698-3.264Z"/><path fill="url(#C)" d="M892.911 635.9a6.248 6.248 0 0 1 4.851-.808 6.27 6.27 0 0 1 2.27 1.07 6.265 6.265 0 0 1 2.461 4.258 6.252 6.252 0 0 1-1.376 4.721 6.27 6.27 0 0 1-1.95 1.581l-7.846 4.497a3.118 3.118 0 0 0 1.303-2.857 9.738 9.738 0 0 0-4.414-7.643 3.104 3.104 0 0 0-3.128-.321l7.829-4.498Z"/><path fill="#fff" d="M900.147 641.716a2.393 2.393 0 0 0-1.449-1.118 2.379 2.379 0 0 0-1.815.238l-9.469 5.445a9.05 9.05 0 0 0 3.128 3.297l.372.203 8.37-4.802a2.404 2.404 0 0 0 .863-3.263Z" opacity=".4"/><path fill="#F5F5F5" d="M885.08 640.397a3.118 3.118 0 0 1 3.128.321 9.75 9.75 0 0 1 4.413 7.643 3.107 3.107 0 0 1-1.302 2.858l-5.681 3.263a6.26 6.26 0 0 1-8.302-2.42 6.256 6.256 0 0 1 2.046-8.401l5.698-3.264Z"/><path fill="#000" d="M892.624 648.362a9.741 9.741 0 0 0-4.414-7.643 3.118 3.118 0 0 0-3.128-.321l.44-.254.338-.186a3.062 3.062 0 0 1 3.128.305 9.767 9.767 0 0 1 4.413 7.643 3.105 3.105 0 0 1-1.285 2.857l-.795.457a3.118 3.118 0 0 0 1.303-2.858Z" opacity=".1"/><path fill="#E0E0E0" d="M879.993 654.787a6.24 6.24 0 0 1-.609-11.126l5.699-3.264a3.115 3.115 0 0 1 3.128.321c.55.329 1.056.726 1.505 1.184l-9.486 5.462c-3.112 1.809-1.996 6.358-.237 7.423Z"/><path fill="#fff" d="M880.856 652.793a2.374 2.374 0 0 1-.239-1.815 2.393 2.393 0 0 1 1.118-1.449l9.587-5.529a9.152 9.152 0 0 1 1.303 4.363c.008.14.008.281 0 .422l-8.455 4.887a2.385 2.385 0 0 1-3.314-.879Z"/><path fill="#000" d="M901.787 638.892c.052.104.097.211.135.321.036.082.064.167.085.254.009.09.009.18 0 .27V640.177c.084.423.118.854.101 1.285.009.158.009.316 0 .474 0-2.046-3.382-5.293-6.544-3.484l-5.986 3.382a7.47 7.47 0 0 0-1.505-1.184 3.108 3.108 0 0 0-3.128-.321l7.829-4.498a6.236 6.236 0 0 1 4.744-.631 6.238 6.238 0 0 1 3.795 2.914c.102.169.186.338.271.507.084.169.186.203.203.271Z" opacity=".1"/><path fill="#FAFAFA" d="M838.922 678.002c.358.203.731.378 1.116.525l.439.169a13.312 13.312 0 0 0 10.146-.913l10.568-6.105a7.423 7.423 0 0 0 3.043-2.925c.497-.857.82-1.803.951-2.785a7.534 7.534 0 0 0-1.492-5.575 7.517 7.517 0 0 0-2.215-1.937 8.412 8.412 0 0 0-1.116-.525l-.439-.152a13.33 13.33 0 0 0-10.146.896l-10.568 6.105h-.085a7.534 7.534 0 0 0-4.067 6.521 7.543 7.543 0 0 0 3.763 6.701h.102Z" opacity=".7" style="mix-blend-mode:hard-light"/><path fill="#E0E0E0" d="M861.56 664.934a12.982 12.982 0 0 0-11.701.219l-10.568 6.105c-3.382 1.927-3.5 4.937-.372 6.763a12.933 12.933 0 0 0 11.701-.22l10.568-6.104c3.331-1.927 3.5-4.954.372-6.763Z"/><path fill="#fff" d="M864.47 668.434a7.538 7.538 0 0 0-2.908-10.027 8.526 8.526 0 0 0-1.116-.524l-.44-.152a13.628 13.628 0 0 0-8.826.27c4.954-.49 7.998-.642 11.109 1.962a7.655 7.655 0 0 1 2.181 8.471Z"/><path fill="#F5F5F5" d="M845.651 663.38a3.07 3.07 0 0 1 3.129.305 9.773 9.773 0 0 1 4.413 7.643 3.106 3.106 0 0 1-1.285 2.857l-5.699 3.264a6.246 6.246 0 0 1-6.239-10.822l5.681-3.247Z"/><path fill="url(#D)" d="M853.48 658.865a6.248 6.248 0 0 1 4.851-.809 6.265 6.265 0 0 1 4.731 5.329 6.252 6.252 0 0 1-1.376 4.721 6.27 6.27 0 0 1-1.95 1.581l-7.812 4.497a3.112 3.112 0 0 0 1.285-2.857 9.77 9.77 0 0 0-4.413-7.643 3.062 3.062 0 0 0-3.128-.305l7.812-4.514Z"/><path fill="#fff" d="M860.734 664.662a2.413 2.413 0 0 0-1.458-1.119 2.399 2.399 0 0 0-1.823.24l-9.469 5.444a9.188 9.188 0 0 0 3.129 3.382l.388.203 8.354-4.802a2.385 2.385 0 0 0 .879-3.348Z" opacity=".4"/><path fill="#F5F5F5" d="M845.651 663.38a3.07 3.07 0 0 1 3.129.305 9.773 9.773 0 0 1 4.413 7.643 3.106 3.106 0 0 1-1.285 2.857l-5.699 3.264a6.246 6.246 0 0 1-6.239-10.822l5.681-3.247Z"/><path fill="#000" d="M853.194 671.322a9.775 9.775 0 0 0-4.413-7.643 3.068 3.068 0 0 0-3.129-.304l.457-.271.338-.186a3.108 3.108 0 0 1 3.111.305 9.726 9.726 0 0 1 4.414 7.643 3.098 3.098 0 0 1-1.285 2.857l-.778.457a3.11 3.11 0 0 0 1.285-2.858Z" opacity=".1"/><path fill="#E0E0E0" d="M840.562 677.753a6.243 6.243 0 0 1-3.721-5.381 6.235 6.235 0 0 1 3.129-5.745l5.681-3.247a3.062 3.062 0 0 1 3.128.305 7.07 7.07 0 0 1 1.522 1.183l-9.486 5.479c-3.111 1.809-2.012 6.341-.253 7.406Z"/><path fill="#fff" d="M841.424 675.754a2.401 2.401 0 0 1 .879-3.264l9.588-5.529a8.972 8.972 0 0 1 1.302 4.363c.008.14.008.281 0 .422l-8.455 4.887a2.406 2.406 0 0 1-1.842.256 2.397 2.397 0 0 1-1.472-1.135Z"/><path fill="#000" d="M862.374 661.857c0 .101.085.22.135.338.051.118 0 .152 0 .237 0 .084 0 .186.085.27.084.085 0 .186 0 .288v.152c.067.425.101.855.101 1.285v.457c0-2.046-3.382-5.276-6.544-3.484l-5.985 3.382a7.07 7.07 0 0 0-1.522-1.183 3.062 3.062 0 0 0-3.128-.305l7.829-4.515a6.277 6.277 0 0 1 8.556 2.283l.253.524c.081.084.155.174.22.271Z" opacity=".1"/><path fill="#FAFAFA" d="M906.643 671.376c.357.206.73.381 1.116.524l.44.17a13.257 13.257 0 0 0 10.145-.914l10.585-6.104a7.523 7.523 0 0 0-.811-13.747l-.44-.152a13.23 13.23 0 0 0-10.145.896l-10.585 6.104a7.526 7.526 0 0 0-.305 13.223Z" opacity=".7" style="mix-blend-mode:hard-light"/><path fill="#E0E0E0" d="M929.287 658.307a12.935 12.935 0 0 0-11.701.22l-10.569 6.104c-3.381 1.911-3.5 4.937-.372 6.764a12.885 12.885 0 0 0 11.685-.22l10.585-6.104c3.331-1.945 3.483-4.955.372-6.764Z"/><path fill="#fff" d="M932.189 661.805a7.542 7.542 0 0 0-2.908-10.027 7.514 7.514 0 0 0-1.116-.524l-.44-.152a13.631 13.631 0 0 0-8.827.27c4.955-.507 7.998-.642 11.11 1.962a7.655 7.655 0 0 1 2.181 8.471Z"/><path fill="#F5F5F5" d="M913.374 656.733a3.118 3.118 0 0 1 3.128.321 9.74 9.74 0 0 1 4.413 7.643 3.075 3.075 0 0 1-1.302 2.858l-5.681 3.263a6.254 6.254 0 0 1-4.74.622 6.253 6.253 0 0 1-4.573-5.221 6.254 6.254 0 0 1 1.24-4.617 6.241 6.241 0 0 1 1.834-1.605l5.681-3.264Z"/><path fill="url(#E)" d="M921.251 652.232a6.259 6.259 0 0 1 8.964 7.032 6.255 6.255 0 0 1-2.708 3.79l-7.947 4.498a3.082 3.082 0 0 0 1.302-2.858 9.745 9.745 0 0 0-4.414-7.642 3.108 3.108 0 0 0-3.128-.322l7.931-4.498Z"/><path fill="#fff" d="M928.456 658.033a2.395 2.395 0 0 0-3.28-.879l-9.469 5.445a9.05 9.05 0 0 0 3.128 3.297l.389.203 8.353-4.802a2.402 2.402 0 0 0 .879-3.264Z" opacity=".4"/><path fill="#F5F5F5" d="M913.374 656.733a3.118 3.118 0 0 1 3.128.321 9.74 9.74 0 0 1 4.413 7.643 3.075 3.075 0 0 1-1.302 2.858l-5.681 3.263a6.254 6.254 0 0 1-4.74.622 6.253 6.253 0 0 1-4.573-5.221 6.254 6.254 0 0 1 1.24-4.617 6.241 6.241 0 0 1 1.834-1.605l5.681-3.264Z"/><path fill="#000" d="M920.913 664.7a9.741 9.741 0 0 0-4.414-7.643 3.118 3.118 0 0 0-3.128-.321l.457-.254.338-.186a3.053 3.053 0 0 1 1.598-.278c.547.054 1.07.255 1.513.582a9.778 9.778 0 0 1 4.413 7.643 3.107 3.107 0 0 1-1.285 2.858l-.794.457a3.083 3.083 0 0 0 1.302-2.858Z" opacity=".1"/><path fill="#E0E0E0" d="M908.284 671.123a6.246 6.246 0 0 1-3.721-5.381 6.24 6.24 0 0 1 3.129-5.745l5.682-3.264a3.116 3.116 0 0 1 3.128.321 7.56 7.56 0 0 1 1.522 1.184l-9.486 5.462c-3.128 1.809-2.012 6.357-.254 7.423Z"/><path fill="#fff" d="M909.145 669.13a2.39 2.39 0 0 1 .176-2.651c.191-.248.431-.457.703-.613l9.537-5.546a8.965 8.965 0 0 1 1.302 4.363v.423l-8.455 4.886a2.397 2.397 0 0 1-3.263-.862Z"/><path fill="#000" d="M930.097 655.246c.046.104.086.212.118.321.036.082.064.167.085.254V656.531c.084.423.118.855.101 1.285.009.158.009.316 0 .474 0-2.046-3.382-5.293-6.544-3.483l-5.969 3.381a7.527 7.527 0 0 0-1.522-1.183 3.108 3.108 0 0 0-3.128-.322l7.829-4.497a6.24 6.24 0 0 1 8.455 2.282c.1.17.19.345.27.525a2 2 0 0 1 .305.253Z" opacity=".1"/><path fill="#FAFAFA" d="M867.143 694.338a8.28 8.28 0 0 0 1.116.525c.143.065.29.121.44.169a13.309 13.309 0 0 0 10.145-.913l10.568-6.105h.085a7.544 7.544 0 0 0 3.09-10.391 7.537 7.537 0 0 0-2.803-2.832 8.534 8.534 0 0 0-1.116-.524l-.439-.152a13.33 13.33 0 0 0-10.146.896l-10.568 6.104a7.537 7.537 0 0 0-3.104 10.388 7.537 7.537 0 0 0 2.8 2.835h-.068Z" opacity=".7" style="mix-blend-mode:hard-light"/><path fill="#E0E0E0" d="M889.85 681.265a12.957 12.957 0 0 0-11.684.22l-10.585 6.104c-3.382 1.928-3.483 4.938-.372 6.764a12.933 12.933 0 0 0 11.769-.22l10.568-6.104c3.263-1.928 3.433-4.954.304-6.764Z"/><path fill="#fff" d="M892.759 684.77a7.538 7.538 0 0 0-2.908-10.027 8.399 8.399 0 0 0-1.116-.524l-.44-.152a13.628 13.628 0 0 0-8.826.27c4.954-.49 8.015-.642 11.109 1.979a7.625 7.625 0 0 1 2.181 8.454Z"/><path fill="#F5F5F5" d="M873.904 679.71a3.038 3.038 0 0 1 3.111.305 9.767 9.767 0 0 1 4.414 7.642 3.118 3.118 0 0 1-1.285 2.858l-5.682 3.264a6.26 6.26 0 0 1-8.302-2.42 6.26 6.26 0 0 1 2.046-8.402l5.698-3.247Z"/><path fill="url(#F)" d="M881.786 675.194a6.254 6.254 0 0 1 6.925.458 6.259 6.259 0 0 1 2.388 4.142 6.26 6.26 0 0 1-3.074 6.222l-7.829 4.498a3.112 3.112 0 0 0 1.286-2.858 9.792 9.792 0 0 0-1.295-4.348 9.785 9.785 0 0 0-3.119-3.295 3.046 3.046 0 0 0-3.111-.304l7.829-4.515Z"/><path fill="#fff" d="M889.022 680.997a2.393 2.393 0 0 0-1.449-1.118 2.379 2.379 0 0 0-1.815.238l-9.469 5.445a9.012 9.012 0 0 0 3.111 3.297l.389.203 8.353-4.802a2.378 2.378 0 0 0 1.18-2.38 2.392 2.392 0 0 0-.3-.883Z" opacity=".4"/><path fill="#F5F5F5" d="M873.904 679.71a3.038 3.038 0 0 1 3.111.305 9.767 9.767 0 0 1 4.414 7.642 3.118 3.118 0 0 1-1.285 2.858l-5.682 3.264a6.26 6.26 0 0 1-8.302-2.42 6.26 6.26 0 0 1 2.046-8.402l5.698-3.247Z"/><path fill="#000" d="M881.482 687.658a9.767 9.767 0 0 0-4.414-7.643 3.037 3.037 0 0 0-3.111-.304l.44-.271.338-.186a3.15 3.15 0 0 1 3.128.304 9.782 9.782 0 0 1 4.498 7.643 3.095 3.095 0 0 1-1.302 2.858l-.778.456a3.11 3.11 0 0 0 1.201-2.857Z" opacity=".1"/><path fill="#E0E0E0" d="M868.831 694.134a6.164 6.164 0 0 1-2.875-2.587 6.242 6.242 0 0 1 2.283-8.539l5.698-3.247a3.053 3.053 0 0 1 3.112.304c.562.325 1.075.73 1.522 1.201-3.382 1.894-7.373 4.227-9.486 5.462-3.095 1.741-1.945 6.307-.254 7.406Z"/><path fill="#fff" d="M869.729 692.09a2.4 2.4 0 0 1 .862-3.264l9.605-5.529a9.116 9.116 0 0 1 1.285 4.362c.008.147.008.294 0 .44l-8.455 4.87a2.38 2.38 0 0 1-2.68-.164 2.393 2.393 0 0 1-.617-.715Z"/><path fill="#000" d="M890.662 678.191c0 .101 0 .22.135.338.023.08.052.16.085.237v.27c.008.096.008.192 0 .288v.152c.068.43.101.866.101 1.302v.456c0-2.046-3.382-5.275-6.544-3.483-1.065.609-2.688 1.522-5.986 3.382a6.771 6.771 0 0 0-1.521-1.201 3.053 3.053 0 0 0-3.112-.304l7.829-4.515a6.257 6.257 0 0 1 8.455 2.283c.101.166.186.342.253.524a.629.629 0 0 1 .305.271Z" opacity=".1"/><path fill="#FAFAFA" d="M934.93 687.71c.358.202.731.377 1.116.524l.439.169a13.314 13.314 0 0 0 10.146-.913l10.568-6.105h.084a7.432 7.432 0 0 0 3.044-2.925 7.515 7.515 0 0 0 .767-5.723 7.513 7.513 0 0 0-3.523-4.574 8.532 8.532 0 0 0-1.116-.525l-.44-.152a13.328 13.328 0 0 0-10.145.896l-10.568 6.105h-.085a7.523 7.523 0 0 0-.304 13.223h.017Z" opacity=".7" style="mix-blend-mode:hard-light"/><path fill="#E0E0E0" d="M957.572 674.639a12.935 12.935 0 0 0-11.701.22l-10.568 6.104c-3.382 1.928-3.501 4.937-.372 6.764a12.941 12.941 0 0 0 11.701-.22l10.568-6.104c3.331-1.928 3.5-4.955.372-6.764Z"/><path fill="#fff" d="M960.482 678.141a7.542 7.542 0 0 0-2.908-10.027 8.526 8.526 0 0 0-1.116-.524l-.44-.152a13.631 13.631 0 0 0-8.827.27c4.955-.507 7.998-.642 11.11 1.962a7.655 7.655 0 0 1 2.181 8.471Z"/><path fill="#F5F5F5" d="M941.661 673.083a3.062 3.062 0 0 1 3.128.305 9.771 9.771 0 0 1 4.413 7.643 3.115 3.115 0 0 1-1.285 2.857l-5.681 3.264a6.257 6.257 0 0 1-6.257-10.822l5.682-3.247Z"/><path fill="url(#G)" d="M949.506 668.569a6.254 6.254 0 0 1 6.925.458c.65.5 1.196 1.123 1.606 1.833.409.711.675 1.495.782 2.309a6.26 6.26 0 0 1-3.074 6.222l-7.829 4.498a3.112 3.112 0 0 0 1.286-2.858 9.788 9.788 0 0 0-1.295-4.348 9.785 9.785 0 0 0-3.119-3.295 3.054 3.054 0 0 0-3.128-.304l7.846-4.515Z"/><path fill="#fff" d="M956.759 674.368a2.393 2.393 0 0 0-1.449-1.118 2.379 2.379 0 0 0-1.815.239l-9.503 5.427a9.194 9.194 0 0 0 3.128 3.382l.389.203 8.353-4.802a2.392 2.392 0 0 0 1.161-1.474 2.377 2.377 0 0 0-.264-1.857Z" opacity=".4"/><path fill="#F5F5F5" d="M941.661 673.083a3.062 3.062 0 0 1 3.128.305 9.771 9.771 0 0 1 4.413 7.643 3.115 3.115 0 0 1-1.285 2.857l-5.681 3.264a6.257 6.257 0 0 1-6.257-10.822l5.682-3.247Z"/><path fill="#000" d="M949.202 681.028a9.776 9.776 0 0 0-4.414-7.643 3.054 3.054 0 0 0-3.128-.304l.457-.271.338-.186a3.042 3.042 0 0 1 3.111.305 9.734 9.734 0 0 1 4.43 7.676 3.107 3.107 0 0 1-1.302 2.858l-.778.457a3.106 3.106 0 0 0 1.286-2.892Z" opacity=".1"/><path fill="#E0E0E0" d="M936.572 687.454a6.164 6.164 0 0 1-2.875-2.587 6.241 6.241 0 0 1 2.283-8.455l5.682-3.246a3.062 3.062 0 0 1 3.128.304c.558.323 1.07.722 1.522 1.184l-9.486 5.478c-3.112 1.708-2.046 6.256-.254 7.322Z"/><path fill="#fff" d="M937.45 685.465a2.387 2.387 0 0 1 .862-3.264l9.588-5.529a8.971 8.971 0 0 1 1.302 4.362c.009.141.009.282 0 .423l-8.455 4.887a2.38 2.38 0 0 1-2.68-.164 2.393 2.393 0 0 1-.617-.715Z"/><path fill="#000" d="M958.448 671.561c0 .102.085.22.135.322.051.101 0 .169 0 .253.036.088.064.179.085.271V672.847c.067.425.101.854.101 1.285v.473c0-2.046-3.381-5.292-6.543-3.483l-5.986 3.382a7.106 7.106 0 0 0-1.522-1.184 3.054 3.054 0 0 0-3.128-.304l7.846-4.515a6.254 6.254 0 0 1 8.539 2.283l.253.524c.081.078.154.163.22.253Z" opacity=".1"/><path fill="#FAFAFA" d="M895.516 710.674a9.33 9.33 0 0 0 1.099.541l.439.153a13.296 13.296 0 0 0 10.146-.914l10.568-6.104h.084a7.523 7.523 0 0 0 .305-13.223c-.362-.195-.735-.37-1.116-.524l-.457-.152a13.328 13.328 0 0 0-10.145.896l-10.551 6.054h-.085a7.544 7.544 0 0 0-3.09 10.391 7.537 7.537 0 0 0 2.803 2.832v.05Z" opacity=".7" style="mix-blend-mode:hard-light"/><path fill="#E0E0E0" d="M918.141 697.601a12.963 12.963 0 0 0-11.684.22l-10.568 6.104c-3.382 1.928-3.501 4.938-.372 6.764a12.908 12.908 0 0 0 11.684-.22l10.568-6.104c3.331-1.928 3.483-4.954.372-6.764Z"/><path fill="#fff" d="M921.047 701.103a7.543 7.543 0 0 0-2.891-10.027c-.362-.195-.735-.37-1.116-.524l-.457-.152a13.742 13.742 0 0 0-8.86.355c4.954-.491 8.015-.643 11.126 1.978a7.653 7.653 0 0 1 2.398 3.844 7.65 7.65 0 0 1-.2 4.526Z"/><path fill="#F5F5F5" d="M902.246 696.046a3.05 3.05 0 0 1 3.111.304 9.734 9.734 0 0 1 3.124 3.292 9.733 9.733 0 0 1 1.289 4.351 3.108 3.108 0 0 1-1.285 2.858l-5.681 3.28a6.257 6.257 0 1 1-6.257-10.838l5.699-3.247Z"/><path fill="url(#H)" d="M910.075 691.533a6.248 6.248 0 0 1 4.851-.809 6.265 6.265 0 0 1 4.731 5.329 6.252 6.252 0 0 1-3.326 6.301l-7.845 4.498a3.118 3.118 0 0 0 1.285-2.857 9.726 9.726 0 0 0-4.414-7.643 3.044 3.044 0 0 0-3.111-.305l7.829-4.514Z"/><path fill="#fff" d="M917.311 697.329a2.393 2.393 0 0 0-1.449-1.118 2.379 2.379 0 0 0-1.815.239l-9.469 5.444a8.913 8.913 0 0 0 3.128 3.382c.121.074.245.142.372.203l8.353-4.802a2.389 2.389 0 0 0 1.212-2.446 2.41 2.41 0 0 0-.332-.902Z" opacity=".4"/><path fill="#F5F5F5" d="M902.246 696.046a3.05 3.05 0 0 1 3.111.304 9.734 9.734 0 0 1 3.124 3.292 9.733 9.733 0 0 1 1.289 4.351 3.108 3.108 0 0 1-1.285 2.858l-5.681 3.28a6.257 6.257 0 1 1-6.257-10.838l5.699-3.247Z"/><path fill="#000" d="M909.771 703.994a9.726 9.726 0 0 0-4.414-7.643 3.037 3.037 0 0 0-3.111-.304l.406-.22.338-.186a3.15 3.15 0 0 1 3.128.304 9.776 9.776 0 0 1 4.414 7.643 3.069 3.069 0 0 1-1.302 2.858l-.778.456a3.116 3.116 0 0 0 1.319-2.908Z" opacity=".1"/><path fill="#E0E0E0" d="M897.139 710.419a6.25 6.25 0 0 1-3.7-5.382 6.245 6.245 0 0 1 .745-3.31 6.247 6.247 0 0 1 2.363-2.434l5.698-3.247a3.053 3.053 0 0 1 3.112.304 6.8 6.8 0 0 1 1.521 1.201l-9.486 5.462c-3.111 1.792-1.995 6.341-.253 7.406Z"/><path fill="#fff" d="M898.016 708.422a2.39 2.39 0 0 1 .176-2.651c.192-.249.431-.457.703-.613l9.588-5.529a9.116 9.116 0 0 1 1.285 4.362c.008.147.008.294 0 .44l-8.455 4.87a2.38 2.38 0 0 1-2.68-.164 2.393 2.393 0 0 1-.617-.715Z"/><path fill="#000" d="M918.953 694.526c.056.108.101.222.136.338v.507c.006.096.006.192 0 .288v.152c.084.429.118.866.101 1.302.008.152.008.305 0 .457 0-2.046-3.382-5.276-6.544-3.484-1.065.626-2.688 1.522-5.986 3.382a6.767 6.767 0 0 0-1.521-1.2 3.045 3.045 0 0 0-3.112-.305l7.829-4.514a6.25 6.25 0 0 1 6.932.447 6.237 6.237 0 0 1 1.878 2.359s.27.203.287.271Z" opacity=".1"/><path fill="#FAFAFA" d="M963.219 704.045c.351.206.718.381 1.099.525l.439.169a13.314 13.314 0 0 0 10.146-.913l10.568-6.105h.084a7.54 7.54 0 0 0 .288-13.222 9.376 9.376 0 0 0-1.099-.525l-.457-.152a13.328 13.328 0 0 0-10.145.896l-10.535 6.037h-.084a7.544 7.544 0 0 0-4.068 6.521 7.543 7.543 0 0 0 3.764 6.702v.067Z" opacity=".7" style="mix-blend-mode:hard-light"/><path fill="#E0E0E0" d="M985.858 690.973a12.884 12.884 0 0 0-11.684.22l-10.568 6.104c-3.382 1.928-3.5 4.937-.389 6.763a12.933 12.933 0 0 0 11.701-.219l10.568-6.104c3.399-1.911 3.5-4.955.372-6.764Z"/><path fill="#fff" d="M988.771 694.473a7.524 7.524 0 0 0-2.908-10.027 9.532 9.532 0 0 0-1.099-.524l-.457-.152a13.631 13.631 0 0 0-8.827.27c4.955-.49 8.015-.642 11.127 1.962a7.68 7.68 0 0 1 2.164 8.471Z"/><path fill="#F5F5F5" d="M969.968 689.421a3.045 3.045 0 0 1 3.111.305 9.77 9.77 0 0 1 4.413 7.642 3.112 3.112 0 0 1-1.285 2.858l-5.681 3.263a6.248 6.248 0 0 1-4.851.809 6.249 6.249 0 0 1-3.937-2.948 6.257 6.257 0 0 1 2.531-8.682l5.699-3.247Z"/><path fill="url(#I)" d="M977.794 684.9a6.259 6.259 0 0 1 8.964 7.032 6.255 6.255 0 0 1-2.708 3.79l-7.846 4.498a3.112 3.112 0 0 0 1.285-2.858 9.773 9.773 0 0 0-4.413-7.642 3.042 3.042 0 0 0-3.111-.305l7.829-4.515Z"/><path fill="#fff" d="M985.033 690.751a2.378 2.378 0 0 0-2.38-1.18 2.392 2.392 0 0 0-.883.3l-9.469 5.445a9.012 9.012 0 0 0 3.111 3.297l.389.203 8.353-4.802a2.393 2.393 0 0 0 1.18-2.38 2.375 2.375 0 0 0-.301-.883Z" opacity=".4"/><path fill="#F5F5F5" d="M969.968 689.421a3.045 3.045 0 0 1 3.111.305 9.77 9.77 0 0 1 4.413 7.642 3.112 3.112 0 0 1-1.285 2.858l-5.681 3.263a6.248 6.248 0 0 1-4.851.809 6.249 6.249 0 0 1-3.937-2.948 6.257 6.257 0 0 1 2.531-8.682l5.699-3.247Z"/><path fill="#000" d="M977.489 697.366a9.774 9.774 0 0 0-4.413-7.643 3.05 3.05 0 0 0-3.111-.304l.439-.271.339-.186a3.062 3.062 0 0 1 3.128.305 9.764 9.764 0 0 1 3.118 3.295 9.758 9.758 0 0 1 1.295 4.348 3.065 3.065 0 0 1-1.302 2.857l-.778.457a3.112 3.112 0 0 0 1.285-2.858Z" opacity=".1"/><path fill="#E0E0E0" d="M964.858 703.794a6.253 6.253 0 0 1-2.956-8.692 6.256 6.256 0 0 1 2.364-2.434l5.698-3.247a3.038 3.038 0 0 1 3.111.305 7.07 7.07 0 0 1 1.522 1.183l-9.486 5.479c-3.111 1.792-1.995 6.341-.253 7.406Z"/><path fill="#fff" d="M965.739 701.793a2.374 2.374 0 0 1-.239-1.815 2.393 2.393 0 0 1 1.118-1.449l9.587-5.529a9.105 9.105 0 0 1 1.285 4.363c.009.14.009.282 0 .422l-8.454 4.887a2.38 2.38 0 0 1-2.68-.164 2.379 2.379 0 0 1-.617-.715Z"/><path fill="#000" d="M986.673 687.897c.056.108.101.222.136.338 0 0 0 .152.084.237.085.085 0 .186 0 .271.008.095.008.191 0 .287v.152c.084.423.118.854.102 1.285.008.152.008.305 0 .457 0-2.046-3.382-5.293-6.544-3.483l-5.986 3.381a7.07 7.07 0 0 0-1.522-1.183 3.044 3.044 0 0 0-3.111-.305l7.829-4.514a6.244 6.244 0 0 1 8.539 2.282c.101.166.186.342.254.525a.622.622 0 0 1 .219.27Z" opacity=".1"/><path fill="#FAFAFA" d="M923.807 727.006c.355.214.728.396 1.116.541l.44.153a13.253 13.253 0 0 0 10.145-.914l10.568-6.104h.085a7.525 7.525 0 0 0 .304-13.223c-.362-.195-.734-.37-1.116-.524l-.44-.152a13.374 13.374 0 0 0-10.145.896l-10.568 6.104a7.378 7.378 0 0 0-3.061 2.926 7.496 7.496 0 0 0-.766 5.723 7.496 7.496 0 0 0 3.523 4.574h-.085Z" opacity=".7" style="mix-blend-mode:hard-light"/><path fill="#E0E0E0" d="M946.426 713.937a12.95 12.95 0 0 0-11.684.22l-10.568 6.104c-3.382 1.928-3.5 4.938-.372 6.764a12.884 12.884 0 0 0 11.684-.22l10.568-6.104c3.331-1.928 3.5-4.954.372-6.764Z"/><path fill="#fff" d="M949.353 717.434a7.542 7.542 0 0 0-2.908-10.027c-.362-.195-.735-.37-1.116-.524l-.44-.152a13.639 13.639 0 0 0-8.827.287c4.938-.507 7.998-.659 11.11 1.962a7.625 7.625 0 0 1 2.181 8.454Z"/><path fill="#F5F5F5" d="M930.535 712.38a3.062 3.062 0 0 1 3.128.305 9.771 9.771 0 0 1 4.413 7.643 3.073 3.073 0 0 1-1.302 2.857l-5.681 3.281a6.26 6.26 0 0 1-8.548-2.292 6.258 6.258 0 0 1 2.291-8.547l5.699-3.247Z"/><path fill="url(#J)" d="M938.364 707.865a6.248 6.248 0 0 1 4.851-.809 6.265 6.265 0 0 1 4.731 5.329 6.248 6.248 0 0 1-3.326 6.301l-7.845 4.498a3.084 3.084 0 0 0 1.302-2.857 9.784 9.784 0 0 0-4.414-7.643 3.062 3.062 0 0 0-3.128-.305l7.829-4.514Z"/><path fill="#fff" d="M945.604 713.665a2.393 2.393 0 0 0-1.449-1.118 2.379 2.379 0 0 0-1.815.238l-9.469 5.445a9.034 9.034 0 0 0 3.128 3.297c.121.075.245.142.372.203l8.37-4.802a2.384 2.384 0 0 0 .863-3.263Z" opacity=".4"/><path fill="#F5F5F5" d="M930.535 712.38a3.062 3.062 0 0 1 3.128.305 9.771 9.771 0 0 1 4.413 7.643 3.073 3.073 0 0 1-1.302 2.857l-5.681 3.281a6.26 6.26 0 0 1-8.548-2.292 6.258 6.258 0 0 1 2.291-8.547l5.699-3.247Z"/><path fill="#000" d="M938.159 720.326a9.767 9.767 0 0 0-4.414-7.643 3.054 3.054 0 0 0-3.128-.304l.44-.271.338-.186a3.15 3.15 0 0 1 3.128.304 9.774 9.774 0 0 1 4.413 7.643 3.09 3.09 0 0 1-1.285 2.858l-.794.456a3.084 3.084 0 0 0 1.302-2.857Z" opacity=".1"/><path fill="#E0E0E0" d="M925.447 726.753a6.185 6.185 0 0 1-2.891-2.587 6.257 6.257 0 0 1 2.282-8.539l5.699-3.247a3.062 3.062 0 0 1 3.128.305 8.168 8.168 0 0 1 1.522 1.2l-9.503 5.462c-3.111 1.843-1.995 6.358-.237 7.406Z"/><path fill="#fff" d="M926.326 724.774a2.398 2.398 0 0 1 .174-2.662c.192-.25.432-.46.705-.618l9.587-5.529a9.14 9.14 0 0 1 1.302 4.362v.44l-8.454 4.87a2.394 2.394 0 0 1-1.838.263 2.399 2.399 0 0 1-1.476-1.126Z"/><path fill="#000" d="M947.258 710.858c0 .118.085.22.119.338a.999.999 0 0 1 .084.237s0 .186.085.27c.084.085 0 .203 0 .288v.152c.084.429.118.866.101 1.302.008.152.008.305 0 .457 0-2.046-3.382-5.276-6.544-3.484-1.065.626-2.688 1.522-5.969 3.382a8.13 8.13 0 0 0-1.521-1.2 3.07 3.07 0 0 0-1.522-.585 3.07 3.07 0 0 0-1.607.28l7.829-4.514a6.25 6.25 0 0 1 6.932.447 6.237 6.237 0 0 1 1.607 1.835c.102.169.186.355.271.524l.135.271Z" opacity=".1"/><path fill="url(#K)" d="M806.522 473.742c0-9.453-6.239-18.905-18.718-26.108-24.991-14.423-65.489-14.423-90.463 0-12.479 7.203-18.736 16.655-18.736 26.108v148.444c0 9.452 6.257 18.904 18.736 26.125 24.974 14.423 65.472 14.423 90.463 0 12.479-7.221 18.735-16.673 18.718-26.125V473.742Z"/><path fill="#fff" d="M781.938 444.672v206.595a70.529 70.529 0 0 0 5.867-2.959 49.014 49.014 0 0 0 10.145-7.711V455.341a48.515 48.515 0 0 0-10.145-7.71 65.585 65.585 0 0 0-5.867-2.959ZM765.18 656.711a92.91 92.91 0 0 0 9.198-2.52V441.746a84.56 84.56 0 0 0-9.198-2.519v217.484Z" opacity=".4"/><path fill="#000" d="M805.423 466.925a46.11 46.11 0 0 0-14.88-12.935c-24.653-14.221-63.544-15.219-90.176-2.943v-4.988c-1.014.507-2.046 1.015-3.026 1.573-12.479 7.203-18.736 16.655-18.736 26.107v148.445c0 9.452 6.257 18.904 18.736 26.124 24.974 14.424 65.472 14.424 90.463 0a47.52 47.52 0 0 0 11.397-8.928c-11.836 11.11-41.512 17.231-63.511 12.902-21.998-4.329-35.323-18.363-35.323-28.34v-5.343c12.327 6.764 28.458 9.858 44.235 9.858v-95.299c-15.777 0-31.908-2.435-44.235-9.064v-11.751c26.632 12.242 65.523 11.278 90.176-2.959a43.57 43.57 0 0 0 15.979-14.745v-20.9a22.093 22.093 0 0 0-1.099-6.814Z" opacity=".1"/><path fill="#000" d="M689.41 626.769V453.215c-7.186 6.189-10.805 13.358-10.805 11.278v148.479c0 18.701 6.257 28.153 18.736 35.373a80.686 80.686 0 0 0 24.383 8.709c-24.13-6.51-32.314-22.929-32.314-30.285Z" opacity=".1"/><path fill="#E0E0E0" d="M810.411 444.536c0-10.027-6.628-20.055-19.868-27.697-26.547-15.235-69.445-15.236-95.874-.017-13.24 7.643-19.868 17.67-19.868 27.697v30.064c0 10.027 6.628 20.037 19.868 27.697 26.496 15.218 69.445 15.218 95.942 0 13.24-7.66 19.868-17.67 19.868-27.697v-30.047h-.068Z"/><path fill="#000" d="M758.806 512.581c-33.564.186-51.285-10.703-56.662-19.615-4.092-6.763-4.802-19.242-4.802-31.619 0 0-3.788-28.205-3.044-28.289.457 0-8.049-1.894-14.575-3.281a25.45 25.45 0 0 0-4.989 14.762v30.064c0 10.027 6.629 20.037 19.869 27.697 17.416 10.044 41.917 13.443 64.203 10.281Z" opacity=".1"/><g fill="#000" opacity=".1"><path d="M735.809 513.395c-1.082 0-2.164-.084-3.247-.186v-39.381h3.247v39.567ZM706.963 507.831c-1.116-.389-2.182-.812-3.264-1.234v-38.773h3.264v40.007ZM720.911 511.518c-1.066-.22-2.199-.322-3.247-.558v-39.128h3.247v39.686ZM691.066 500.038v-38.417h3.247v40.497c-1.15-.744-2.198-1.369-3.247-2.08ZM676.355 482.992a23.538 23.538 0 0 1-1.691-8.454v-29.997c.027-1.884.283-3.758.761-5.58h.862l.068 44.031ZM681.008 490.973v-38.012h3.263v41.647a39.86 39.86 0 0 1-3.263-3.635ZM751.076 513.293c-1.082.084-2.164.135-3.264.186v-39.584h3.264v39.398ZM780.313 507.123c-1.048.406-2.181.693-3.247 1.065v-39.719h3.247v38.654ZM766.107 511.247c-1.065.22-2.181.355-3.263.558v-39.719h3.263v39.161ZM789.965 502.574v-39.5h3.263v37.504c-.896.575-1.691 1.167-2.688 1.691l-.575.305ZM801.297 494.149v-39.77h3.28v36.067a38.17 38.17 0 0 1-3.28 3.703ZM808.773 441.75h1.404c.137.924.216 1.856.237 2.79v30.064a23.56 23.56 0 0 1-1.691 8.455l.05-41.309Z"/></g><path fill="#F5F5F5" d="M694.669 472.219c26.497 15.303 69.446 15.303 95.942 0 26.497-15.303 26.497-40.091 0-55.377-26.496-15.286-69.513-15.235-95.942-.017-26.429 15.218-26.564 40.108 0 55.394Z"/><path fill="#FAFAFA" d="M794.18 469.903c22.742-15.388 21.559-38.519-3.636-53.061-12.918-7.457-29.743-11.261-46.669-11.447a75.679 75.679 0 0 0-24.755 8.454c-22.894 13.105-22.894 39.229 0 52.334 20.443 11.667 52.182 12.884 75.06 3.72Z"/><path fill="#000" d="M701.026 645.386c22.945 11.532 60.145 11.532 83.091 0 22.945-11.532 22.945-30.217 0-41.749-22.946-11.532-60.146-11.532-83.091 0-22.946 11.532-22.946 30.217 0 41.749Z" opacity=".1"/><path fill="#fff" d="M678.605 499.41c0 9.452 6.257 18.904 18.736 26.108 12.479 7.203 28.863 10.822 45.231 10.822v94.504c-16.368 0-32.736-3.618-45.231-10.822-12.496-7.203-18.736-16.655-18.736-26.107V499.41Z"/><path fill="#E0E0E0" d="M697.341 555.87a76.632 76.632 0 0 0 18.87 7.491v-7.66a76.645 76.645 0 0 1-18.87-7.507c-12.479-7.204-18.736-16.656-18.736-26.108v7.66c0 9.452 6.257 18.972 18.736 26.124ZM716.211 597.33a76.554 76.554 0 0 1-18.87-7.491c-12.479-7.22-18.736-16.672-18.736-26.124v7.677c0 9.452 6.257 18.904 18.736 26.107a75.942 75.942 0 0 0 18.87 7.491v-7.66ZM697.341 576.684a75.941 75.941 0 0 0 18.87 7.541v-7.659a77.28 77.28 0 0 1-18.87-7.559c-12.479-7.22-18.736-16.672-18.736-26.124v7.677c0 9.469 6.257 18.904 18.736 26.124Z"/><path fill="#fff" d="M679.906 459.573s22.083 22.202 64.694 21.052c42.611-1.15 59.672-24.434 61.921-31.654 2.249-7.22.829-16.604-5.749-24.569a28.344 28.344 0 0 1 9.638 20.139v30.064c0 2.537 1.302 11.279-12.445 22.608 0 0 8.066-9.165 8.066-17.992V458.44s-15.083 25.245-61.431 25.245c-46.347 0-62.343-20.324-64.694-24.112Z"/><path fill="#E0E0E0" d="M677.392 695.489c10.737-6.189 28.154-6.189 38.891 0a15.222 15.222 0 0 1 7.66 8.691c10.263 6.223 10.145 16.064-.44 22.168-10.585 6.104-28.154 6.189-38.891 0-4.244-2.452-6.764-5.512-7.677-8.691-10.263-6.223-10.128-16.047.457-22.168Z"/><path fill="#F0F0F0" d="M682.836 706.563v7.355c0 3.382 2.198 6.646 6.594 9.182 8.776 5.073 23.014 5.073 31.789 0a15.22 15.22 0 0 0 4.938-4.295 8.459 8.459 0 0 0 1.691-4.887v-7.355a7.882 7.882 0 0 0-.237-1.86c0-.203-.118-.406-.186-.609a12.882 12.882 0 0 0-6.172-6.763c-8.234-4.769-21.305-5.073-30.132-.88v3.67l-3.179 1.86v-3.619a13.783 13.783 0 0 0-3.584 3.551c-.203.316-.389.637-.558.964-.204.39-.374.798-.508 1.217a7.382 7.382 0 0 0-.456 2.469Z"/><path fill="#EBEBEB" d="M698.225 694.234c7.812-1.471 16.74-.423 22.946 3.162a12.882 12.882 0 0 1 6.172 6.763c0 .203.135.406.186.609a7.88 7.88 0 0 1 .236 1.86v7.355a8.445 8.445 0 0 1-1.691 4.887 15.207 15.207 0 0 1-4.937 4.295c-6.206 3.585-15.134 4.616-22.946 3.128l.034-32.059Z"/><path fill="#FAFAFA" d="M721.167 697.398c8.252 4.752 8.742 12.293 1.505 17.383l-31.637-18.262c8.844-4.177 21.88-3.889 30.132.879Z"/><path fill="#EBEBEB" d="M705.275 693.594v1.488a30.871 30.871 0 0 1 15.218 3.601c3.636 2.097 5.699 4.803 5.834 7.609a8.451 8.451 0 0 1-3.686 6.764l-28.137-16.25a34.83 34.83 0 0 1 10.839-1.69v-1.488m0 0a34.028 34.028 0 0 0-14.238 2.925l31.637 18.262c7.237-5.073 6.764-12.631-1.505-17.383a32.493 32.493 0 0 0-15.894-3.804Z"/><path fill="#fff" d="M722.689 712.854s8.742-6.764-.981-15.134c7.711 4.768 8.049 12.09.964 17.061l-31.637-18.261 31.654 16.334Z"/><path fill="#FAFAFA" d="m687.909 698.363 31.637 18.262c-8.827 4.177-21.881 3.889-30.132-.879-8.252-4.769-8.793-12.293-1.505-17.383Z"/><path fill="#EBEBEB" d="m687.91 700.139 28.137 16.249a34.696 34.696 0 0 1-10.822 1.691 30.839 30.839 0 0 1-15.218-3.601c-3.636-2.097-5.716-4.803-5.851-7.609a8.451 8.451 0 0 1 3.686-6.764m.068-1.742c-7.237 5.073-6.764 12.631 1.505 17.383a32.517 32.517 0 0 0 15.911 3.804 34.01 34.01 0 0 0 14.221-2.925l-31.637-18.262Z"/><path fill="#fff" d="M719.494 716.625c-8.827 4.177-21.881 3.889-30.132-.879a19.5 19.5 0 0 1-2.604-1.793c16.182 8.1 29.202 2.385 29.202 2.385l-28.052-17.975 31.586 18.262Z"/><path fill="#E0E0E0" d="m691.035 700.189 31.654 18.363-.017-3.771-31.637-18.261v3.669Z"/><path fill="#000" d="M719.496 716.625v3.754l3.196-1.826-3.196-1.928Z" opacity=".2"/><path fill="#F0F0F0" d="M670.715 694v7.355c0 3.382 2.198 6.629 6.594 9.165 8.776 5.073 23.014 5.073 31.806 0a15.222 15.222 0 0 0 4.938-4.278 8.459 8.459 0 0 0 1.691-4.887V694a7.673 7.673 0 0 0-.237-1.86 5.177 5.177 0 0 0-.186-.626 12.905 12.905 0 0 0-6.155-6.764c-8.252-4.751-21.305-5.072-30.132-.879v3.686l-3.179 1.843v-3.686a13.549 13.549 0 0 0-3.585 3.568 7.928 7.928 0 0 0-.574.947c-.198.393-.368.8-.508 1.217a7.923 7.923 0 0 0-.473 2.554Z"/><path fill="#EBEBEB" d="M686.219 681.67c7.812-1.488 16.757-.439 22.962 3.145a12.905 12.905 0 0 1 6.155 6.764c.075.204.138.413.186.626.155.608.234 1.232.237 1.86v7.355a8.459 8.459 0 0 1-1.691 4.887 15.224 15.224 0 0 1-4.938 4.278c-6.222 3.585-15.218 4.633-22.962 3.145l.051-32.06Z"/><path fill="#FAFAFA" d="M709.112 684.819c8.235 4.769 8.742 12.293 1.505 17.4l-31.637-18.228c8.827-4.211 21.881-3.923 30.132.828Z"/><path fill="#EBEBEB" d="M693.2 682.52a30.658 30.658 0 0 1 15.218 3.602c3.635 2.097 5.715 4.802 5.834 7.609a8.321 8.321 0 0 1-3.67 6.764l-28.136-16.25a34.22 34.22 0 0 1 10.821-1.691m0-1.505a33.823 33.823 0 0 0-14.22 2.942l31.637 18.262c7.237-5.073 6.763-12.631-1.505-17.399a32.519 32.519 0 0 0-15.912-3.805Z"/><path fill="#fff" d="M710.617 700.289s8.742-6.764-.98-15.134c7.727 4.768 8.048 12.073.98 17.061l-31.637-18.228 31.637 16.301Z"/><path fill="#FAFAFA" d="m675.798 685.781 31.637 18.279c-8.843 4.176-21.981 3.889-30.132-.879-8.15-4.769-8.742-12.293-1.505-17.4Z"/><path fill="#EBEBEB" d="m675.903 687.575 28.137 16.233a34.416 34.416 0 0 1-10.839 1.69 30.876 30.876 0 0 1-15.218-3.601c-3.635-2.097-5.715-4.802-5.833-7.626a8.45 8.45 0 0 1 3.686-6.764m-.102-1.792c-7.237 5.073-6.763 12.631 1.505 17.399a32.5 32.5 0 0 0 15.895 3.805 34.055 34.055 0 0 0 14.237-2.925l-31.637-18.279Z"/><path fill="#fff" d="M707.439 704.06c-8.843 4.176-21.982 3.889-30.132-.879a17.251 17.251 0 0 1-2.604-1.81c16.182 8.117 29.185 2.402 29.185 2.402l-28.086-17.992 31.637 18.279Z"/><path fill="#E0E0E0" d="m678.98 687.626 31.637 18.364v-3.771l-31.637-18.262v3.669Z"/><path fill="#000" d="M707.438 704.059v3.753l3.178-1.826-3.178-1.927Z" opacity=".2"/><path fill="#E0E0E0" d="M771.807 715.507c-10.061 5.817-10.061 15.218 0 21.035s26.379 5.817 36.439 0c10.061-5.817 10.061-15.218 0-21.035-10.06-5.817-26.378-5.817-36.439 0Z"/><path fill="#F0F0F0" d="M767.527 716.114v7.356c0 3.382 2.199 6.628 6.595 9.164 8.776 5.073 23.013 5.073 31.806 0a15.206 15.206 0 0 0 4.937-4.277 8.456 8.456 0 0 0 1.691-4.887v-7.356a7.786 7.786 0 0 0-.237-1.86c0-.203-.101-.405-.169-.625a13.017 13.017 0 0 0-6.171-6.764c-8.252-4.751-21.306-5.073-30.132-.862v3.669l-3.179 1.843v-3.686a13.534 13.534 0 0 0-3.602 3.551 9.65 9.65 0 0 0-.575.964c-.2.386-.37.787-.507 1.2a7.904 7.904 0 0 0-.457 2.57Z"/><path fill="#EBEBEB" d="M782.961 703.706c7.812-1.488 16.757-.422 22.962 3.145a13.018 13.018 0 0 1 6.172 6.764c0 .22.119.423.169.626.154.608.233 1.232.237 1.86v7.355a8.452 8.452 0 0 1-1.691 4.887 15.23 15.23 0 0 1-4.937 4.278c-6.223 3.601-15.218 4.633-22.963 3.145l.051-32.06Z"/><path fill="#FAFAFA" d="M805.926 706.85c8.235 4.769 8.742 12.31 1.505 17.4l-31.603-18.279c8.793-4.16 21.847-3.872 30.098.879Z"/><path fill="#EBEBEB" d="M790.032 704.55a30.74 30.74 0 0 1 15.218 3.602c3.635 2.096 5.698 4.802 5.834 7.609a8.459 8.459 0 0 1-3.687 6.763l-28.187-16.3a34.744 34.744 0 0 1 10.839-1.691m0-1.488a33.821 33.821 0 0 0-14.221 2.925l31.637 18.262c7.237-5.073 6.764-12.631-1.505-17.399a32.695 32.695 0 0 0-15.911-3.788Z"/><path fill="#fff" d="M807.431 722.32s8.742-6.764-.964-15.134c7.711 4.769 8.032 12.073.964 17.061l-31.603-18.278 31.603 16.351Z"/><path fill="#FAFAFA" d="m772.615 707.812 31.637 18.279c-8.844 4.177-21.88 3.889-30.132-.879-8.252-4.768-8.742-12.293-1.505-17.4Z"/><path fill="#EBEBEB" d="m772.716 709.606 28.136 16.233a34.349 34.349 0 0 1-10.838 1.691 30.872 30.872 0 0 1-15.218-3.602c-3.636-2.097-5.699-4.802-5.834-7.626a8.454 8.454 0 0 1 3.686-6.764m-.101-1.792c-7.237 5.073-6.764 12.648 1.505 17.4a32.493 32.493 0 0 0 15.894 3.804 34.044 34.044 0 0 0 14.238-2.925l-31.57-18.211-.067-.068Z"/><path fill="#fff" d="M804.252 726.091c-8.844 4.177-21.881 3.889-30.132-.879a18.506 18.506 0 0 1-2.604-1.792c16.182 8.099 29.202 2.384 29.202 2.384l-28.103-17.992 31.637 18.279Z"/><path fill="#E0E0E0" d="m775.793 709.658 31.637 18.363v-3.771l-31.637-18.262v3.67Z"/><path fill="#000" d="M804.25 726.094v3.754l3.179-1.827-3.179-1.927Z" opacity=".2"/><path fill="#E0E0E0" d="M536.66 160.41c18.6 3.754 25.364 9.148 35.797 26.581 7.71 12.885 12.377 21.238 24.94 39.398l39.28 4.261-7.947 28.374s-24.197.761-37.893 1.843c-10.247.811-12.597 0-18.972-7.677-13.189-15.844-29.033-38.4-29.033-38.4l-6.172-54.38Z"/><path fill="#000" d="M536.66 160.41c18.6 3.754 25.364 9.148 35.797 26.581 7.71 12.885 12.377 21.238 24.94 39.398l39.28 4.261-7.947 28.374s-24.197.761-37.893 1.843c-10.247.811-12.597 0-18.972-7.677-13.189-15.844-29.033-38.4-29.033-38.4l-6.172-54.38Z" opacity=".02"/><path fill="#EBEBEB" d="m573.642 277.354 5.377 157.255s-48.157-11.837-91.309-4.549c-43.152 7.288-53.433 17.433-53.433 17.433l27.833-243.27 99.577 3.009s11.955 16.335 11.955 70.122Z"/><path fill="#263238" d="M442.951 694.688c-.456 9.993-2.215 15.134-6.594 20.528a20.193 20.193 0 0 1-20.443 5.969c-7.728-2.08-15.776-7.863-17.569-16.25-1.792-8.387-.118-16.52 1.691-23.013l42.915 12.766Z"/><path fill="#C8856A" d="M417.03 531.94c5.597-27.139 11.836-39.28 13.003-45.452 0 0 8.218-64.102 11.938-118.651 1.792-26.259 1.15-43.963 18.312-74.399l99.764 24.518c1.217 13.983 10.602 109.164 5.986 191.241-3.788 67.366-8.725 89.347-9.233 100.592-.287 6.392-.152 10.619.119 19.496.118 3.585.422 6.527 2.502 8.793a62.098 62.098 0 0 0 11.312 8.962c7.762 5.072 11.329 7.896 20.207 11.058a20.935 20.935 0 0 1 4.937 2.198 5.522 5.522 0 0 1 2.655 4.295c0 2.401-2.198 4.295-4.43 5.479-8.032 4.261-18.076 3.382-26.852.845-8.776-2.536-16.909-6.763-25.786-9.317-6.121-1.691-12.598-2.553-18.211-5.411a9.091 9.091 0 0 1-4.38-3.906 9.311 9.311 0 0 1-.423-4.768c.677-7.034 1.421-9.249 1.235-16.334-.169-6.764-1.201-19.158-1.691-25.888-.457-5.664-7.643-46.246-6.561-71.339.302-7.675.036-15.361-.794-22.996l-8.878-89.162c-4.058 14.897-19.09 58.049-23.774 77.782-5.749 24.078-8.843 53.213-20.798 97.295-3.382 12.411-9.604 27.375-11.143 34.883-.66 9.52-4.16 34.461-8.742 44.961-6.95 15.928-28.204 15.421-29.997 1.59-1.505-11.752 6.409-42.51 6.764-50.22.355-7.711-3.466-64.525 2.959-96.145Z"/><path fill="#37474F" d="M410.859 637.029c-1.691 9.926-3.179 17.451-4.312 23.2-3.213 9.807-4.464 14.541-6.273 20.916-2.976 10.416-2.402 19.75.794 25.364 4.752 8.302 23.943 16.909 34.038 6.189 8.252-8.709 7.914-12.868 7.897-25.804V675.7c.253-11.565.456-13.814 2.35-21.153 1.082-4.193 0-10.585.947-15.032.947-4.836 1.353-6.949-.287-7.71 0 0-.846 6.188-1.894 10.669-.964 4.109-1.691 8.252-2.655 12.361-1.116 5.072-2.063 10.145-3.635 15.133-.17.541-.457 1.201-1.066 1.268-.608.068-1.217-.777-1.251-1.471a3.013 3.013 0 0 0-.795-2.282 10.128 10.128 0 0 0-2.739-1.539 27.624 27.624 0 0 0-6.07-1.471 28.746 28.746 0 0 0-8.996-.355 5.273 5.273 0 0 0-2.452.964c-.642.507-.862 1.217-1.42 1.691a1.335 1.335 0 0 1-1.691.27 1.403 1.403 0 0 1-.389-.862 16.226 16.226 0 0 1-.101-3.517c.253-6.477.727-12.834 1.691-19.277a86.663 86.663 0 0 0 1.538-15.336 18.816 18.816 0 0 0-3.229 8.978Z"/><path fill="#263238" d="m512.767 654.262 101.776 20.46a6.761 6.761 0 0 1-.795 6.56c-3.72 4.346-16.25 10.146-31.738 8.455-15.489-1.691-23.927-8.049-29.642-12.022a43.218 43.218 0 0 0-9.587-5.394c-3.686-1.522-9.114-1.59-13.037-2.097a74.478 74.478 0 0 1-10.264-2.689 21.979 21.979 0 0 1-6.764-3.382 23.536 23.536 0 0 1-.456-5.343c.051-1.336.27-3.246.507-4.548Z"/><path fill="#37474F" d="M536.19 645.097c-3.179-3.382-7.44-5.225-11.735-7.051-3.635-1.573-4.633-3.01-4.751-6.882 0-.338-2.959-.118-3.382.338a4.677 4.677 0 0 0-1.268 3.382c-.254 2.908-.626 4.261-1.133 7.271-1.133 6.679-2.756 8.793-1.691 16.638 4.548 5.597 18.6 8.269 26.158 9.199 11.837 1.454 21.289 10.957 30.166 13.798 16.3 5.208 32.279 2.418 38.468-.592 7.169-3.483 11.194-9.215 5.309-13.375-3.601-2.536-24.01-12.648-27.68-14.559-2.908-1.539-5.681-3.382-8.454-4.971a5.078 5.078 0 0 0-1.522-.66 4.857 4.857 0 0 0-1.961.203 57.188 57.188 0 0 0-10.433 3.467 4.662 4.662 0 0 0-2.757 2.367c-.625 1.995 3.518 5.512 1.015 6.155-2.249.592-6.104-2.232-7.88-3.145-5.85-3.027-11.836-6.443-16.131-11.312a1.429 1.429 0 0 0-.338-.271Z"/><path fill="#455A64" d="m559.88 288.501 1.048 10.145c9.621 56.087 10.518 130.42 9.486 153.01-3.01 66.588-11.599 184.021-11.599 184.021s-2.655 6.527-21.593 8.032c-14.576 1.167-23.047-3.788-23.047-3.788s-6.764-79.607-7.829-98.833a190.373 190.373 0 0 1 .524-24.67 159.812 159.812 0 0 0-.372-30.758l-5.073-56.865s-18.87 78.762-20.696 88.35c-9.114 48.089-31.231 137.234-31.231 137.234s-15.405 4.058-29.27 1.606-16.994-7.338-16.994-7.338 8.573-100.254 10.738-119.683c2.908-25.972 5.597-38.062 7.558-48.698 2.317-12.513 3.382-59.689 5.073-87.132 1.082-18.718 1.826-32.939 4.109-46.686 4.734-28.745 18.701-46.027 23.994-56.612l.828-5.664c15.658 12.597 75.026 20.375 104.346 4.329Z"/><path fill="#37474F" d="m501.406 428.811 14.779-53.67s19.192-3.669 28.627-14.051c0 0-2.131 13.104-21.982 19.8l-13.967 46.889-2.621 55.124-4.836-54.092Z"/><path fill="#263238" d="M465.22 64.535c-.389-17.331 33.361-36.287 65.032-15.218s20.173 41.41 17.974 47.6l2.148 82.853-107.288 2.52s5.073-74.687 4.785-86.879c-.287-12.191.541-30.487 17.349-30.876Z"/><path fill="url(#L)" d="m479.131 155.454-26.023 6.932c-5.191 1.691.659 32.348-.795 67.349-1.471 35.932-11.684 94.082-11.684 94.082s24.366 10.146 68.059 9.452c43.135-.71 56.02-14.169 56.02-14.169l-5.8-42.442-2.892-33.396s15.506-21.711 6.882-43.05c-8.623-21.339-38.4-49.036-38.4-49.036l-13.375.659-31.992 3.619Z"/><path fill="#fff" d="m479.131 155.454-26.023 6.932c-5.191 1.691.659 32.348-.795 67.349-1.471 35.932-11.684 94.082-11.684 94.082s24.366 10.146 68.059 9.452c43.135-.71 56.02-14.169 56.02-14.169l-5.8-42.442-2.892-33.396s15.506-21.711 6.882-43.05c-8.623-21.339-38.4-49.036-38.4-49.036l-13.375.659-31.992 3.619Z" opacity=".7"/><path fill="url(#M)" d="M476.543 240.656a28.96 28.96 0 0 0 25.516 12.564 28.754 28.754 0 0 0 22.911-13.95s-2.992 18.008-24.585 18.413c-21.593.406-23.842-17.027-23.842-17.027Z" opacity=".3"/><path fill="#E0E0E0" d="M510.078 152.886c10.754 8.979 27.494 21.052 37.42 34.021 20.054 26.243 24.417 50.389 26.006 80.893.321-45.654 5.901-71.271-49.036-118.363-9.808-8.455-13.697-10.281-13.697-10.281l-.693 13.73Z"/><path fill="#F0F0F0" d="M473.907 146.867c.795 11.279 12.682 39.534 13.781 70.308 1.099 30.775-15.911 230.673-15.911 230.673s-32.584 4.126-56.578-9.536c0 0 8.455-72.523 27.055-153.112 4.785-20.899-3.957-46.821-5.716-74.991a118.892 118.892 0 0 1 5.868-45.215s17.45-5.834 22.776-8.928a28.1 28.1 0 0 0 8.725-9.199Z"/><path fill="#EBEBEB" d="M472.611 152.329c.761 3.635 1.978 8.032 3.381 13.121 3.737 13.646 8.878 32.313 9.571 51.81 1.014 28.745-14.068 208.793-15.742 228.644-1.928.169-5.344.406-9.689.406-11.837 0-28.593-1.691-42.645-9.182 1.302-10.534 9.96-78.035 26.784-151.454 3.128-13.663.659-29.338-1.961-45.925-1.505-9.571-3.078-19.463-3.704-29.659a119.586 119.586 0 0 1 5.411-43.405c3.822-1.302 17.417-6.003 22.185-8.776a25.465 25.465 0 0 0 6.409-5.58Zm1.302-5.462a28.107 28.107 0 0 1-8.793 9.199c-5.326 3.094-22.777 8.928-22.777 8.928a118.892 118.892 0 0 0-5.867 45.215c1.691 28.17 10.5 54.108 5.715 74.991-18.464 80.589-27.054 153.112-27.054 153.112 14.964 8.454 33.26 10.145 44.927 10.145 3.892.027 7.782-.171 11.65-.592 0 0 16.909-199.882 15.912-230.673-.998-30.791-12.986-59.03-13.781-70.308l.068-.017Z"/><path fill="#C8856A" d="M531.282 69.898c3.179 2.384 7.373 9.824 6.764 22.354-.321 3.787 2.114 7.744 2.266 14.812.608 26.733-4.058 31.552-11.228 34.867a37.892 37.892 0 0 1-16.148 3.381l.845 12.919c4.6 7.592 4.448 11.836 3.687 21.66-23.944-6.865-42.51-23.266-42.527-23.317l-.896-30.166s-2.266-.626-2.266-.609a9.55 9.55 0 0 1-11.836 0c-5.445-3.99-9.148-14.017-4.481-19.766 4.667-5.749 13.206-3.534 16.334 1.403 3.128 4.938 10.585 3.382 8.167-4.176 3.382-1.691 7.576-5.26 4.143-19.158-.778-3.568.389-9.757 3.72-12.834 5.546-5.073 16.571-4.245 22.929 1.876 8.522-7.169 13.95-8.167 20.527-3.246Z"/><path fill="#263238" d="m530.656 84.642-8.793-1.69a4.296 4.296 0 0 1 5.073-3.619 4.715 4.715 0 0 1 3.72 5.31ZM491.276 88.782l8.454-3.162a4.283 4.283 0 0 0-2.236-2.556 4.294 4.294 0 0 0-3.394-.132 4.681 4.681 0 0 0-2.824 5.85Z"/><path fill="#AF6152" d="m502.775 119.082 12.513 3.889a6.276 6.276 0 0 1-7.981 4.43 6.9 6.9 0 0 1-4.532-8.319Z"/><path fill="#FFA8A7" d="M510.18 127.671a5.853 5.853 0 0 0-6.054-5.597c-.477.009-.95.088-1.403.237a6.762 6.762 0 0 0 4.582 5.174c.93.287 1.915.351 2.875.186Z"/><path fill="#AF6152" d="m510.57 91.523 2.554 23.791 11.785-3.584-14.339-20.207ZM513.021 145.257c-8.59-.287-27.967-4.954-32.685-16.249 0 0 .845 8.116 11.515 14.17 8.455 4.785 21.424 5.816 21.424 5.816l-.254-3.737Z"/><path fill="#263238" d="M503.401 97.645a3.794 3.794 0 0 1-2.535 3.352 3.79 3.79 0 0 1-4.069-1.051 3.789 3.789 0 0 1 3.019-6.308 3.804 3.804 0 0 1 3.585 4.007ZM531.483 95.869a3.8 3.8 0 0 1-2.969 3.013 3.801 3.801 0 0 1-3.919-1.593 3.808 3.808 0 0 1 1.679-5.64 3.806 3.806 0 0 1 2.199-.227 3.783 3.783 0 0 1 3.004 2.964c.1.49.102.993.006 1.483Z"/><path fill="#E0E0E0" d="M457.949 159.225c4.295-1.911 9.165-7.288 11.684-10.281 2.52-2.993 3.382-5.073 5.073-5.073v5.394s13.663 30.994 13.527 58.133c.305 18.6-1.691 40.464-1.691 40.464-5.596-13.155-18.6-34.799-18.6-34.799l7.102-17.027c-4.261-16.842-13.984-27.782-17.095-36.811Z"/><path fill="#455A64" d="M477.224 252.381a1.463 1.463 0 0 0-1.995.541 1.465 1.465 0 0 0 .541 1.996l1.268.727a.68.68 0 0 0 .727 0 2.288 2.288 0 0 0 1.032-1.793.758.758 0 0 0-.305-.676l-1.268-.727v-.068Z"/><path fill="#37474F" d="M478.798 253.785a.758.758 0 0 0-.305-.676l-1.268-.727a1.418 1.418 0 0 0-1.42 0c.389-.152.997.203 1.691.608.693.406 1.048.93.49 1.996-.406.777-.879.693-1.099.591l.135.085a.68.68 0 0 0 .727 0 2.284 2.284 0 0 0 1.049-1.877Z"/><path fill="url(#N)" d="M483.311 252.296a4.556 4.556 0 0 0-3.542-.618 4.555 4.555 0 0 0-3.464 3.889 4.542 4.542 0 0 0 1.022 3.447c.396.475.884.865 1.435 1.145a2.254 2.254 0 0 0 2.266-.237 7.064 7.064 0 0 0 3.213-5.546 2.272 2.272 0 0 0-.93-2.08Z"/><path fill="url(#O)" d="M480.959 252.515a7.084 7.084 0 0 0-3.213 5.563 2.285 2.285 0 0 0 .93 2.08l28.052 16.199a2.25 2.25 0 0 0 2.266-.22 7.074 7.074 0 0 0 3.213-5.563 2.28 2.28 0 0 0-.93-2.08l-27.968-16.198a2.243 2.243 0 0 0-2.35.219Z"/><path fill="#fff" d="M480.959 252.515a7.084 7.084 0 0 0-3.213 5.563 2.285 2.285 0 0 0 .93 2.08l28.052 16.199a2.25 2.25 0 0 0 2.266-.22 7.074 7.074 0 0 0 3.213-5.563 2.28 2.28 0 0 0-.93-2.08l-27.968-16.198a2.243 2.243 0 0 0-2.35.219Z" opacity=".2"/><path fill="url(#P)" d="M513.971 271.486a7.252 7.252 0 0 1-3.298 5.715 2.345 2.345 0 0 1-2.333.237l-2.164-1.252a2.312 2.312 0 0 1-.964-2.13 7.3 7.3 0 0 1 3.382-5.715 2.346 2.346 0 0 1 2.333-.237l2.164 1.251a2.321 2.321 0 0 1 .88 2.131Z"/><path fill="#fff" d="M513.971 271.486a7.252 7.252 0 0 1-3.298 5.715 2.345 2.345 0 0 1-2.333.237l-2.164-1.252a2.312 2.312 0 0 1-.964-2.13 7.3 7.3 0 0 1 3.382-5.715 2.346 2.346 0 0 1 2.333-.237l2.164 1.251a2.321 2.321 0 0 1 .88 2.131Z" opacity=".35"/><path fill="url(#Q)" d="M507.376 275.295a7.309 7.309 0 0 1 3.382-5.716 2.015 2.015 0 0 1 3.297 1.911 7.243 7.243 0 0 1-3.297 5.715 2.35 2.35 0 0 1-2.334.237 2.323 2.323 0 0 1-1.048-2.147Z"/><path fill="#000" d="M507.376 275.295a7.309 7.309 0 0 1 3.382-5.716 2.015 2.015 0 0 1 3.297 1.911 7.243 7.243 0 0 1-3.297 5.715 2.35 2.35 0 0 1-2.334.237 2.323 2.323 0 0 1-1.048-2.147Z" opacity=".15"/><path fill="url(#R)" d="M534.447 291.793a1.975 1.975 0 0 1-.846-1.843 6.337 6.337 0 0 1 2.858-4.954 2.043 2.043 0 0 1 2.029-.203l1.048 1.014a2.066 2.066 0 0 1 .542 1.539 5.86 5.86 0 0 1-2.638 4.566 2.064 2.064 0 0 1-.765.307 2.065 2.065 0 0 1-.825-.02l-1.403-.406Z"/><path fill="#000" d="M534.439 291.793a1.975 1.975 0 0 1-.845-1.843 6.336 6.336 0 0 1 2.857-4.954 2.046 2.046 0 0 1 2.029-.203l1.049 1.014a2.068 2.068 0 0 1 .541 1.539 5.86 5.86 0 0 1-2.638 4.566 2.064 2.064 0 0 1-.765.307 2.065 2.065 0 0 1-.825-.02l-1.403-.406Z" opacity=".15"/><path fill="url(#S)" d="M533.601 290.004a6.345 6.345 0 0 1 2.857-4.955 2.055 2.055 0 0 1 2.029-.203l-25.363-14.609a1.992 1.992 0 0 0-2.029.186 6.333 6.333 0 0 0-2.019 2.137 6.33 6.33 0 0 0-.839 2.817 2.045 2.045 0 0 0 .829 1.86l25.363 14.61a1.986 1.986 0 0 1-.828-1.843Z"/><path fill="url(#T)" d="M539.636 285.943a1.772 1.772 0 0 0-1.826.169 5.668 5.668 0 0 0-2.553 4.447 1.786 1.786 0 0 0 .744 1.691c1.691.93 6.51 2.705 8.911 2.418a.866.866 0 0 0 .372-.119 2.119 2.119 0 0 0 .947-1.691.788.788 0 0 0 0-.355c-.981-2.282-5.006-5.63-6.595-6.56Z"/><path fill="#fff" d="M511.158 270.371a4.68 4.68 0 0 0-.812.609l25.364 14.626c.254-.224.525-.428.811-.608h.152l-25.363-14.61-.152-.017Zm-1.691-2.435h-.254l-24.958-14.423c-3.263-1.894-4.616-1.843-5.935-1.082 1.302-.474 4.278 1.268 4.667 1.488l25.178 14.541.304-.186 2.165 1.235c.314-.172.649-.302.997-.389l-2.164-1.184Zm36.591 25.618-.389-.778s0-.592-1.556-2.266a26.66 26.66 0 0 0-6.34-4.396 4.124 4.124 0 0 0-.93.744 36.295 36.295 0 0 1 6.763 4.379c.858.726 1.63 1.549 2.3 2.452 0 0 .169-.085.186-.135h-.034Z" opacity=".2"/><path fill="#455A64" d="m545.012 293.995 1.049.609c.456.253 1.691.676 1.944.304.254-.372-.795-1.268-1.251-1.539l-1.048-.592s-.254 0-.542.491c-.287.49-.152.727-.152.727Z"/><path fill="#263238" d="M547.904 294.449a.492.492 0 0 0-.304.22.523.523 0 0 0 0 .389c.22 0 .389 0 .456-.152.068-.152-.033-.271-.152-.457Z"/><path fill="#C8856A" d="M408.031 284.098c-.558-10.298 1.691-39.145 4.008-66.216 3.213-37.2 9.976-42.476 29.269-49.78 15.963 8.674 19.04 25.262 13.088 62.563l-5.073 43.389c10.366 2.198 24.451 5.072 36.338 1.691a17.28 17.28 0 0 0 6.578-3.551 12.203 12.203 0 0 1 3.838-2.012l2.553 1.504c1.691.153 3.5.423 5.174.491 3.856.152 9.266 0 13.139.22 8.454.507 14.795 1.014 22.506 4.379 1.454.643 3.28 1.776 5.072 2.824 1.387.778 0 2.35-.862 2.891a9.497 9.497 0 0 1-3.551 1.319 19.63 19.63 0 0 1-5.073-.135 2.37 2.37 0 0 0-1.335.169 1.69 1.69 0 0 0-.694 1.082c-.059.426-.093.855-.101 1.285a7.035 7.035 0 0 1-3.179 5.36c-.761.474-1.59.795-2.367 1.252a7.97 7.97 0 0 0-2.3 2.401c-.845 1.099-1.691 2.249-2.536 3.382-2.993 3.686-4.329 3.889-10.569 5.427-6.239 1.539-10.754-.625-19.614 0-8.86.626-40.768 5.8-55.174 6.206-26.818.592-28.137-7.643-29.135-26.141Z"/><path fill="#F28F8F" d="M449.258 274.023c-10.805-2.012-22.371-1.556-29.168 3.382 11.143-11.938 29.608-7.018 29.608-7.018l-.44 3.636Z"/><path fill="#E0E0E0" d="M442.341 164.992c-13.849 3.805-25.736 11.634-28.746 25.144-3.009 13.51-6.374 53.162-6.983 73.199s0 36.372 4.058 41.309c4.058 4.938 8.37 6.865 19.716 6.848 11.346-.017 34.867-2.384 34.867-2.384s-4.312-20.798 2.976-32.026l-16.774-3.686s5.952-50.017 7.304-61.904c1.353-11.887.88-33.006-16.418-46.5Z"/><path fill="url(#U)" d="m678.188 189.609-88.181 20.477-34.612 98.36 1.674 2.215 84.021-21.119 38.772-97.701-1.674-2.232Z"/><path fill="#000" d="m591.681 212.318-34.612 98.343-1.674-2.215 34.612-98.36 1.674 2.232Z" opacity=".35"/><path fill="#000" d="m679.864 191.84-88.181 20.477-34.613 98.343 84.021-21.12 38.773-97.7Z" opacity=".25"/><path fill="#000" d="M651.999 209.682s.474-1.488 1.082-3.382c.609-1.894-4.497-1.403-11.379.947l-15.827 2.942c-6.865 2.351-13.291 3.957-13.883 5.783l-1.082 3.382 41.089-9.672Z" opacity=".1"/><path fill="#37474F" d="M658.74 194.918c.372-1.133-1.589-1.116-4.379-.693l-5.073 1.116s2.537-4.684-9.367-2.841c-13.105 2.029-14.086 8.353-14.086 8.353a59.315 59.315 0 0 1-6.374 1.539c-4.363.913-4.938 1.691-5.411 2.824l-.862 2.079 44.944-10.416s.236-.811.608-1.961Z"/><path fill="#37474F" d="M653.468 200.903c-4.193 1.37-5.969 2.08-6.882 4.887-1.048 3.23-1.353 4.582-1.353 4.582l-23.503 6.375s1.691-4.718 2.232-6.29c.541-1.573-2.486-1.945-6.595-.575l1.387-3.923 36.456-9.131-1.742 4.075Z"/><path fill="#37474F" d="m653.144 209.868 1.082-3.382c.592-1.826-4.498-1.403-11.363.947l-15.827 3.095c-6.882 2.35-13.307 3.956-13.899 5.782l-1.082 3.298 41.089-9.74Z"/><path fill="#C8856A" d="M667.465 237.071c3.01-3.381 2.824-3.821 1.691-5.833a11.491 11.491 0 0 0-8.709-5.834c-3.178-.27-6.391-.71-8.133 0-1.741.71-.744 4.278 3.382 5.699 6.341 2.215 6.104 3.99 6.104 3.99a84.89 84.89 0 0 0-8.387-2.587c-2.401-.423-6.949.22-9.756.321-2.807.102-3.771 3.602.761 5.377l-5.073.22c-3.602.152-5.073 1.877-2.503 4.397a5.212 5.212 0 0 0 3.061 1.572s-3.771-.44-3.991.795c-.642 3.568 1.573 4.785 8.912 7.879 5.782 2.435 7.896 5.8 7.473 8.32l-.575 1.454s2.503-1.573 5.31-3.061c2.063-1.099 3.855-2.384 3.382-5.461 0 0 4.125.558 4.683-1.962a13.229 13.229 0 0 0-.355-5.614 4.53 4.53 0 0 0 2.773-3.973 7.323 7.323 0 0 0-.98-4.684l.93-1.015Z"/><path fill="#AF6152" d="M644.422 238.258a23.748 23.748 0 0 1 4.633 0 15.43 15.43 0 0 1 4.278 1.928 55.534 55.534 0 0 1 7.491 5.225 52.455 52.455 0 0 1-8.167-4.058 24.536 24.536 0 0 0-3.856-2.08c-1.336-.338-2.925-.558-4.379-1.015ZM639.84 244.443a9.98 9.98 0 0 1 4.971.44 25.617 25.617 0 0 1 4.549 2.046 46.451 46.451 0 0 1 8.082 5.631c-3.043-1.302-5.884-2.892-8.742-4.464a25.958 25.958 0 0 0-8.86-3.653Z"/><path fill="#455A64" d="M585.915 117.531h18.498a59.485 59.485 0 1 0 77.652-83.556 59.485 59.485 0 0 0-84.753 65.058l-13.697 12.411a3.379 3.379 0 0 0-1.151 3.913 3.386 3.386 0 0 0 3.451 2.174Zm50.068-81.4a54.513 54.513 0 0 1 37.808-.507l5.817 2.435a54.821 54.821 0 0 1 26.065 71.599 54.816 54.816 0 0 1-70.671 28.485l-5.665-2.688a54.805 54.805 0 0 1-17.859-80.68 54.799 54.799 0 0 1 24.505-18.627v-.017Z"/><path fill="#fff" d="M635.982 36.114a54.515 54.515 0 0 1 37.809-.507l5.817 2.452a54.82 54.82 0 0 1-44.607 100.084l-5.664-2.688a54.803 54.803 0 0 1 6.645-99.307v-.034Z"/><path fill="url(#V)" d="M645.503 97.46v20.258h20.274V97.461h20.257V77.187h-20.257V56.93h-20.274v20.257h-20.257V97.46h20.257Z"/><defs><linearGradient id="y" x1="761.328" x2="1023.4" y1="135.662" y2="135.662" gradientUnits="userSpaceOnUse"><stop stop-color="#007FFF"/><stop offset="1" stop-color="#9E67E3"/></linearGradient><linearGradient id="a" x1="333.762" x2="406.711" y1="593.293" y2="593.293" gradientUnits="userSpaceOnUse"><stop stop-color="#007FFF"/><stop offset="1" stop-color="#9E67E3"/></linearGradient><linearGradient id="c" x1="342.523" x2="418.409" y1="560.696" y2="560.696" gradientUnits="userSpaceOnUse"><stop stop-color="#007FFF"/><stop offset="1" stop-color="#9E67E3"/></linearGradient><linearGradient id="d" x1="362.469" x2="406.767" y1="554.095" y2="554.095" gradientUnits="userSpaceOnUse"><stop stop-color="#007FFF"/><stop offset="1" stop-color="#9E67E3"/></linearGradient><linearGradient id="e" x1="542.344" x2="669.111" y1="527.33" y2="527.33" gradientUnits="userSpaceOnUse"><stop stop-color="#007FFF"/><stop offset="1" stop-color="#9E67E3"/></linearGradient><linearGradient id="f" x1="628.426" x2="651.693" y1="464.208" y2="464.208" gradientUnits="userSpaceOnUse"><stop stop-color="#007FFF"/><stop offset="1" stop-color="#9E67E3"/></linearGradient><linearGradient id="g" x1="559.758" x2="598.835" y1="494.729" y2="494.729" gradientUnits="userSpaceOnUse"><stop stop-color="#007FFF"/><stop offset="1" stop-color="#9E67E3"/></linearGradient><linearGradient id="h" x1="579.746" x2="598.836" y1="481.565" y2="481.565" gradientUnits="userSpaceOnUse"><stop stop-color="#007FFF"/><stop offset="1" stop-color="#9E67E3"/></linearGradient><linearGradient id="i" x1="542.344" x2="578.833" y1="515.789" y2="515.789" gradientUnits="userSpaceOnUse"><stop stop-color="#007FFF"/><stop offset="1" stop-color="#9E67E3"/></linearGradient><linearGradient id="j" x1="542.344" x2="584.244" y1="563.929" y2="563.929" gradientUnits="userSpaceOnUse"><stop stop-color="#007FFF"/><stop offset="1" stop-color="#9E67E3"/></linearGradient><linearGradient id="k" x1="542.344" x2="578.833" y1="591.006" y2="591.006" gradientUnits="userSpaceOnUse"><stop stop-color="#007FFF"/><stop offset="1" stop-color="#9E67E3"/></linearGradient><linearGradient id="l" x1="583.008" x2="598.835" y1="597.577" y2="597.577" gradientUnits="userSpaceOnUse"><stop stop-color="#007FFF"/><stop offset="1" stop-color="#9E67E3"/></linearGradient><linearGradient id="m" x1="646.281" x2="669.108" y1="515.255" y2="515.255" gradientUnits="userSpaceOnUse"><stop stop-color="#007FFF"/><stop offset="1" stop-color="#9E67E3"/></linearGradient><linearGradient id="n" x1="565.035" x2="665.627" y1="532.884" y2="532.884" gradientUnits="userSpaceOnUse"><stop stop-color="#007FFF"/><stop offset="1" stop-color="#9E67E3"/></linearGradient><linearGradient id="o" x1="625.941" x2="629.12" y1="574.353" y2="574.353" gradientUnits="userSpaceOnUse"><stop stop-color="#007FFF"/><stop offset="1" stop-color="#9E67E3"/></linearGradient><linearGradient id="p" x1="647.703" x2="665.559" y1="543.373" y2="543.373" gradientUnits="userSpaceOnUse"><stop stop-color="#007FFF"/><stop offset="1" stop-color="#9E67E3"/></linearGradient><linearGradient id="q" x1="577.535" x2="601.411" y1="588.59" y2="588.59" gradientUnits="userSpaceOnUse"><stop stop-color="#007FFF"/><stop offset="1" stop-color="#9E67E3"/></linearGradient><linearGradient id="r" x1="649.836" x2="665.561" y1="472.247" y2="472.247" gradientUnits="userSpaceOnUse"><stop stop-color="#007FFF"/><stop offset="1" stop-color="#9E67E3"/></linearGradient><linearGradient id="s" x1="625.941" x2="629.12" y1="474.404" y2="474.404" gradientUnits="userSpaceOnUse"><stop stop-color="#007FFF"/><stop offset="1" stop-color="#9E67E3"/></linearGradient><linearGradient id="t" x1="564.969" x2="589.115" y1="544.376" y2="544.376" gradientUnits="userSpaceOnUse"><stop stop-color="#007FFF"/><stop offset="1" stop-color="#9E67E3"/></linearGradient><linearGradient id="u" x1="579.746" x2="631.708" y1="456.354" y2="456.354" gradientUnits="userSpaceOnUse"><stop stop-color="#007FFF"/><stop offset="1" stop-color="#9E67E3"/></linearGradient><linearGradient id="v" x1="747.762" x2="1057.67" y1="344.421" y2="344.421" gradientUnits="userSpaceOnUse"><stop stop-color="#007FFF"/><stop offset="1" stop-color="#9E67E3"/></linearGradient><linearGradient id="w" x1="747.797" x2="1056.67" y1="89.128" y2="89.128" gradientUnits="userSpaceOnUse"><stop stop-color="#007FFF"/><stop offset="1" stop-color="#9E67E3"/></linearGradient><linearGradient id="x" x1="761.242" x2="1023.99" y1="172.616" y2="172.616" gradientUnits="userSpaceOnUse"><stop stop-color="#007FFF"/><stop offset="1" stop-color="#9E67E3"/></linearGradient><linearGradient id="b" x1="350.266" x2="400.048" y1="598.98" y2="598.98" gradientUnits="userSpaceOnUse"><stop stop-color="#007FFF"/><stop offset="1" stop-color="#9E67E3"/></linearGradient><linearGradient id="z" x1="1016.6" x2="1023.99" y1="246.348" y2="246.348" gradientUnits="userSpaceOnUse"><stop stop-color="#007FFF"/><stop offset="1" stop-color="#9E67E3"/></linearGradient><linearGradient id="A" x1="798.879" x2="849.572" y1="241.748" y2="241.748" gradientUnits="userSpaceOnUse"><stop stop-color="#007FFF"/><stop offset="1" stop-color="#9E67E3"/></linearGradient><linearGradient id="B" x1="785.418" x2="998.745" y1="502.138" y2="502.138" gradientUnits="userSpaceOnUse"><stop stop-color="#007FFF"/><stop offset="1" stop-color="#9E67E3"/></linearGradient><linearGradient id="C" x1="885.082" x2="902.538" y1="643.067" y2="643.067" gradientUnits="userSpaceOnUse"><stop stop-color="#007FFF"/><stop offset="1" stop-color="#9E67E3"/></linearGradient><linearGradient id="D" x1="845.668" x2="863.107" y1="666.032" y2="666.032" gradientUnits="userSpaceOnUse"><stop stop-color="#007FFF"/><stop offset="1" stop-color="#9E67E3"/></linearGradient><linearGradient id="E" x1="913.32" x2="930.392" y1="659.54" y2="659.54" gradientUnits="userSpaceOnUse"><stop stop-color="#007FFF"/><stop offset="1" stop-color="#9E67E3"/></linearGradient><linearGradient id="F" x1="873.957" x2="891.152" y1="682.437" y2="682.437" gradientUnits="userSpaceOnUse"><stop stop-color="#007FFF"/><stop offset="1" stop-color="#9E67E3"/></linearGradient><linearGradient id="G" x1="941.66" x2="958.872" y1="675.812" y2="675.812" gradientUnits="userSpaceOnUse"><stop stop-color="#007FFF"/><stop offset="1" stop-color="#9E67E3"/></linearGradient><linearGradient id="H" x1="902.246" x2="919.702" y1="698.7" y2="698.7" gradientUnits="userSpaceOnUse"><stop stop-color="#007FFF"/><stop offset="1" stop-color="#9E67E3"/></linearGradient><linearGradient id="I" x1="969.965" x2="986.936" y1="692.208" y2="692.208" gradientUnits="userSpaceOnUse"><stop stop-color="#007FFF"/><stop offset="1" stop-color="#9E67E3"/></linearGradient><linearGradient id="J" x1="930.535" x2="947.991" y1="715.032" y2="715.032" gradientUnits="userSpaceOnUse"><stop stop-color="#007FFF"/><stop offset="1" stop-color="#9E67E3"/></linearGradient><linearGradient id="K" x1="678.605" x2="806.522" y1="547.972" y2="547.972" gradientUnits="userSpaceOnUse"><stop stop-color="#007FFF"/><stop offset="1" stop-color="#9E67E3"/></linearGradient><linearGradient id="L" x1="440.629" x2="565.509" y1="242.24" y2="242.24" gradientUnits="userSpaceOnUse"><stop stop-color="#007FFF"/><stop offset="1" stop-color="#9E67E3"/></linearGradient><linearGradient id="M" x1="476.543" x2="524.971" y1="248.48" y2="248.48" gradientUnits="userSpaceOnUse"><stop stop-color="#007FFF"/><stop offset="1" stop-color="#9E67E3"/></linearGradient><linearGradient id="N" x1="476.273" x2="484.253" y1="255.958" y2="255.958" gradientUnits="userSpaceOnUse"><stop stop-color="#007FFF"/><stop offset="1" stop-color="#9E67E3"/></linearGradient><linearGradient id="O" x1="477.734" x2="512.219" y1="264.314" y2="264.314" gradientUnits="userSpaceOnUse"><stop stop-color="#007FFF"/><stop offset="1" stop-color="#9E67E3"/></linearGradient><linearGradient id="P" x1="505.199" x2="513.99" y1="272.771" y2="272.771" gradientUnits="userSpaceOnUse"><stop stop-color="#007FFF"/><stop offset="1" stop-color="#9E67E3"/></linearGradient><linearGradient id="Q" x1="507.367" x2="514.095" y1="273.365" y2="273.365" gradientUnits="userSpaceOnUse"><stop stop-color="#007FFF"/><stop offset="1" stop-color="#9E67E3"/></linearGradient><linearGradient id="R" x1="533.59" x2="540.082" y1="288.432" y2="288.432" gradientUnits="userSpaceOnUse"><stop stop-color="#007FFF"/><stop offset="1" stop-color="#9E67E3"/></linearGradient><linearGradient id="S" x1="508.227" x2="538.487" y1="280.945" y2="280.945" gradientUnits="userSpaceOnUse"><stop stop-color="#007FFF"/><stop offset="1" stop-color="#9E67E3"/></linearGradient><linearGradient id="T" x1="535.242" x2="546.251" y1="290.232" y2="290.232" gradientUnits="userSpaceOnUse"><stop stop-color="#007FFF"/><stop offset="1" stop-color="#9E67E3"/></linearGradient><linearGradient id="U" x1="555.395" x2="679.862" y1="250.135" y2="250.135" gradientUnits="userSpaceOnUse"><stop stop-color="#007FFF"/><stop offset="1" stop-color="#9E67E3"/></linearGradient><linearGradient id="V" x1="625.246" x2="686.034" y1="87.324" y2="87.324" gradientUnits="userSpaceOnUse"><stop stop-color="#007FFF"/><stop offset="1" stop-color="#9E67E3"/></linearGradient></defs></svg>